<?xml version="1.0" encoding="utf-8"?>
<!-- Generator: Adobe Illustrator 23.0.5, SVG Export Plug-In . SVG Version: 6.00 Build 0)  -->
<svg version="1.1" id="图层_1" xmlns="http://www.w3.org/2000/svg" xmlns:xlink="http://www.w3.org/1999/xlink" x="0px" y="0px"
	 viewBox="0 0 386.5 121.7" style="enable-background:new 0 0 386.5 121.7;" xml:space="preserve">
<style type="text/css">
	.st0{fill:none;stroke:#000000;stroke-width:0.5;}
	.st1{fill:none;stroke:#000000;stroke-width:0.5;stroke-miterlimit:10;}
</style>
<g>
	<path d="M7.3,53.7v0.2C6.8,53.6,6.4,53.3,6,53c-0.5-0.5-0.8-1-1.1-1.7s-0.4-1.3-0.4-2c0-1,0.2-1.9,0.7-2.8c0.5-0.8,1.1-1.4,1.9-1.8
		V45c-0.4,0.2-0.7,0.5-1,0.9s-0.4,0.9-0.6,1.5s-0.2,1.2-0.2,1.8c0,0.7,0.1,1.3,0.2,1.9c0.1,0.4,0.2,0.8,0.3,1.1
		c0.1,0.3,0.3,0.5,0.5,0.8S6.9,53.4,7.3,53.7z"/>
	<path d="M8.7,45.7l1.6-0.8h0.2v5.6c0,0.4,0,0.6,0,0.7s0.1,0.2,0.2,0.2s0.3,0.1,0.6,0.1v0.2H8.8v-0.2c0.3,0,0.5,0,0.6-0.1
		c0.1,0,0.2-0.1,0.2-0.2c0-0.1,0.1-0.3,0.1-0.7V47c0-0.5,0-0.8,0-0.9c0-0.1-0.1-0.2-0.1-0.2s-0.1-0.1-0.2-0.1
		c-0.1,0-0.3,0.1-0.5,0.2L8.7,45.7z"/>
	<path d="M18.1,53.7v0.2c-0.5-0.2-0.9-0.5-1.2-0.9c-0.5-0.5-0.8-1-1.1-1.7s-0.4-1.3-0.4-2c0-1,0.2-1.9,0.7-2.8
		c0.5-0.8,1.1-1.4,1.9-1.8V45c-0.4,0.2-0.7,0.5-1,0.9s-0.4,0.9-0.6,1.5s-0.2,1.2-0.2,1.8c0,0.7,0.1,1.3,0.2,1.9
		c0.1,0.4,0.2,0.8,0.3,1.1c0.1,0.3,0.3,0.5,0.5,0.8S17.8,53.4,18.1,53.7z"/>
	<path d="M22.9,50.4l-0.5,1.3h-3.9v-0.2c1.1-1,2-1.9,2.4-2.6s0.7-1.3,0.7-1.8c0-0.4-0.1-0.8-0.4-1s-0.6-0.4-0.9-0.4
		s-0.6,0.1-0.9,0.3s-0.5,0.5-0.6,0.8h-0.2c0.1-0.6,0.3-1.1,0.6-1.4s0.8-0.5,1.3-0.5s1,0.2,1.3,0.5s0.5,0.8,0.5,1.2
		c0,0.3-0.1,0.7-0.2,1c-0.2,0.5-0.6,1.1-1.2,1.7c-0.8,0.9-1.3,1.4-1.5,1.6h1.7c0.4,0,0.6,0,0.7,0s0.3-0.1,0.4-0.2
		c0.1-0.1,0.2-0.2,0.3-0.3C22.5,50.4,22.9,50.4,22.9,50.4z"/>
	<path d="M28.9,53.7v0.2c-0.5-0.2-0.9-0.5-1.2-0.9c-0.5-0.5-0.8-1-1.1-1.7s-0.4-1.3-0.4-2c0-1,0.2-1.9,0.7-2.8
		c0.5-0.8,1.1-1.4,1.9-1.8V45c-0.4,0.2-0.7,0.5-1,0.9s-0.4,0.9-0.6,1.5S27,48.6,27,49.2c0,0.7,0.1,1.3,0.2,1.9
		c0.1,0.4,0.2,0.8,0.3,1.1c0.1,0.3,0.3,0.5,0.5,0.8S28.6,53.4,28.9,53.7z"/>
	<path d="M29.7,46.3c0.2-0.4,0.4-0.8,0.7-1c0.3-0.2,0.6-0.4,1.1-0.4c0.5,0,0.9,0.2,1.2,0.5c0.2,0.3,0.3,0.5,0.3,0.8
		c0,0.5-0.3,1-0.9,1.5c0.4,0.2,0.7,0.4,0.9,0.7s0.3,0.6,0.3,1c0,0.6-0.2,1.1-0.5,1.5c-0.5,0.5-1.2,0.8-2.1,0.8
		c-0.4,0-0.7-0.1-0.9-0.2s-0.2-0.2-0.2-0.4c0-0.1,0-0.2,0.1-0.2s0.2-0.1,0.3-0.1c0.1,0,0.2,0,0.2,0c0.1,0,0.2,0.1,0.4,0.2
		s0.3,0.2,0.4,0.2s0.2,0.1,0.4,0.1c0.3,0,0.6-0.1,0.9-0.4c0.3-0.3,0.4-0.6,0.4-0.9c0-0.3-0.1-0.5-0.2-0.8c-0.1-0.2-0.2-0.3-0.3-0.4
		c-0.1-0.1-0.3-0.2-0.6-0.4c-0.2-0.1-0.5-0.2-0.7-0.2h-0.2v-0.1c0.3,0,0.5-0.1,0.8-0.3s0.4-0.3,0.6-0.6s0.2-0.5,0.2-0.7
		c0-0.3-0.1-0.6-0.3-0.8s-0.5-0.3-0.8-0.3c-0.5,0-0.9,0.3-1.3,0.8L29.7,46.3z"/>
	<path d="M41.3,49.3V50h-0.9v1.7h-0.8V50h-2.8v-0.6l3.1-4.4h0.5v4.3H41.3z M39.6,49.3V46l-2.3,3.3H39.6z"/>
	<path d="M41.9,45v-0.2c0.5,0.2,0.9,0.5,1.2,0.9c0.5,0.5,0.8,1,1.1,1.7s0.4,1.3,0.4,2c0,1-0.2,1.9-0.7,2.8c-0.5,0.8-1.1,1.4-2,1.8
		v-0.2c0.4-0.2,0.7-0.5,1-0.9s0.5-0.9,0.6-1.5s0.2-1.2,0.2-1.8c0-0.7-0.1-1.3-0.2-1.9c-0.1-0.4-0.2-0.8-0.3-1.1s-0.3-0.5-0.5-0.8
		S42.2,45.2,41.9,45z"/>
	<path d="M45.2,45v-0.2c0.5,0.2,0.9,0.5,1.2,0.9c0.5,0.5,0.8,1,1.1,1.7s0.4,1.3,0.4,2c0,1-0.2,1.9-0.7,2.8c-0.5,0.8-1.1,1.4-2,1.8
		v-0.2c0.4-0.2,0.7-0.5,1-0.9s0.5-0.9,0.6-1.5s0.2-1.2,0.2-1.8c0-0.7-0.1-1.3-0.2-1.9c-0.1-0.4-0.2-0.8-0.3-1.1s-0.3-0.5-0.5-0.8
		S45.6,45.2,45.2,45z"/>
	<path d="M48.6,45v-0.2c0.5,0.2,0.9,0.5,1.2,0.9c0.5,0.5,0.8,1,1.1,1.7s0.4,1.3,0.4,2c0,1-0.2,1.9-0.7,2.8c-0.5,0.8-1.1,1.4-2,1.8
		v-0.2c0.4-0.2,0.7-0.5,1-0.9s0.5-0.9,0.6-1.5s0.2-1.2,0.2-1.8c0-0.7-0.1-1.3-0.2-1.9c-0.1-0.4-0.2-0.8-0.3-1.1s-0.3-0.5-0.5-0.8
		S48.9,45.2,48.6,45z"/>
</g>
<g>
	<path d="M168.5,10.9V11c-0.5-0.2-0.9-0.5-1.2-0.9c-0.5-0.5-0.8-1-1.1-1.7s-0.4-1.3-0.4-2c0-1,0.2-1.9,0.7-2.8
		c0.5-0.8,1.1-1.4,1.9-1.8V2c-0.4,0.2-0.7,0.5-1,0.9s-0.4,0.9-0.6,1.5s-0.2,1.2-0.2,1.8c0,0.7,0.1,1.3,0.2,1.9
		c0.1,0.4,0.2,0.8,0.3,1.1s0.3,0.5,0.5,0.8S168.2,10.6,168.5,10.9z"/>
	<path d="M173.3,7.6l-0.5,1.3H169V8.7c1.1-1,2-1.9,2.4-2.6s0.7-1.3,0.7-1.8c0-0.4-0.1-0.8-0.4-1s-0.6-0.4-0.9-0.4
		c-0.3,0-0.6,0.1-0.9,0.3s-0.5,0.5-0.6,0.8h-0.2c0.1-0.6,0.3-1.1,0.6-1.4s0.8-0.5,1.3-0.5s1,0.2,1.3,0.5s0.5,0.8,0.5,1.2
		c0,0.3-0.1,0.7-0.2,1c-0.2,0.5-0.6,1.1-1.2,1.7c-0.8,0.9-1.3,1.4-1.5,1.6h1.7c0.4,0,0.6,0,0.7,0s0.3-0.1,0.4-0.2
		c0.1-0.1,0.2-0.2,0.3-0.3C173,7.6,173.3,7.6,173.3,7.6z"/>
	<path d="M179.4,10.9V11c-0.5-0.2-0.9-0.5-1.2-0.9c-0.5-0.5-0.8-1-1.1-1.7s-0.4-1.3-0.4-2c0-1,0.2-1.9,0.7-2.8
		c0.5-0.8,1.1-1.4,1.9-1.8V2c-0.4,0.2-0.7,0.5-1,0.9s-0.4,0.9-0.6,1.5s-0.2,1.2-0.2,1.8c0,0.7,0.1,1.3,0.2,1.9
		c0.1,0.4,0.2,0.8,0.3,1.1s0.3,0.5,0.5,0.8S179,10.6,179.4,10.9z"/>
	<path d="M180.1,3.5c0.2-0.4,0.4-0.8,0.7-1s0.6-0.4,1.1-0.4s0.9,0.2,1.2,0.5c0.2,0.3,0.3,0.5,0.3,0.8c0,0.5-0.3,1-0.9,1.5
		c0.4,0.2,0.7,0.4,0.9,0.7s0.3,0.6,0.3,1c0,0.6-0.2,1.1-0.5,1.5C182.7,8.7,182,9,181.1,9c-0.4,0-0.7-0.1-0.9-0.2S180,8.6,180,8.5
		s0-0.2,0.1-0.2s0.2-0.1,0.3-0.1s0.2,0,0.2,0c0.1,0,0.2,0.1,0.4,0.2s0.3,0.2,0.4,0.2c0.1,0,0.2,0.1,0.4,0.1c0.3,0,0.6-0.1,0.9-0.4
		s0.4-0.6,0.4-0.9s-0.1-0.5-0.2-0.8c-0.1-0.2-0.2-0.3-0.3-0.4S182.3,6,182,5.8c-0.2-0.1-0.5-0.2-0.7-0.2h-0.2V5.5
		c0.3,0,0.5-0.1,0.8-0.3s0.4-0.3,0.6-0.6s0.2-0.5,0.2-0.7c0-0.3-0.1-0.6-0.3-0.8c-0.2-0.2-0.5-0.3-0.8-0.3c-0.5,0-0.9,0.3-1.3,0.8
		L180.1,3.5z"/>
	<path d="M191.7,6.5v0.7h-0.9v1.7H190V7.2h-2.8V6.5l3.1-4.4h0.5v4.3L191.7,6.5L191.7,6.5z M190,6.5V3.2l-2.3,3.3H190z"/>
	<path d="M192.3,2.2V2c0.5,0.2,0.9,0.5,1.2,0.9c0.5,0.5,0.8,1,1.1,1.7s0.4,1.3,0.4,2c0,1-0.2,1.9-0.7,2.8c-0.5,0.8-1.1,1.4-2,1.8V11
		c0.4-0.2,0.7-0.5,1-0.9s0.5-0.9,0.6-1.5s0.2-1.2,0.2-1.8c0-0.7-0.1-1.3-0.2-1.9c-0.1-0.4-0.2-0.8-0.3-1.1s-0.3-0.5-0.5-0.8
		C192.9,2.6,192.6,2.4,192.3,2.2z"/>
	<path d="M195.7,2.2V2c0.5,0.2,0.9,0.5,1.2,0.9c0.5,0.5,0.8,1,1.1,1.7s0.4,1.3,0.4,2c0,1-0.2,1.9-0.7,2.8c-0.5,0.8-1.1,1.4-2,1.8V11
		c0.4-0.2,0.7-0.5,1-0.9s0.5-0.9,0.6-1.5s0.2-1.2,0.2-1.8c0-0.7-0.1-1.3-0.2-1.9c-0.1-0.4-0.2-0.8-0.3-1.1s-0.3-0.5-0.5-0.8
		S196,2.4,195.7,2.2z"/>
</g>
<g>
	<path d="M171.4,107.3l-0.6,1.5h-4.7v-0.2c1.4-1.3,2.3-2.3,2.9-3.1c0.6-0.8,0.8-1.5,0.8-2.2c0-0.5-0.2-0.9-0.5-1.2
		c-0.3-0.3-0.7-0.5-1.1-0.5c-0.4,0-0.7,0.1-1.1,0.3c-0.4,0.2-0.5,0.6-0.7,1h-0.2c0.1-0.7,0.3-1.3,0.8-1.7s0.9-0.6,1.5-0.6
		s1.2,0.2,1.6,0.6c0.4,0.4,0.6,0.9,0.6,1.5c0,0.4-0.1,0.8-0.3,1.2c-0.3,0.6-0.8,1.3-1.4,2c-1,1.1-1.6,1.7-1.8,1.9h2.1
		c0.4,0,0.7,0,0.9,0c0.2,0,0.3-0.1,0.5-0.2c0.2-0.1,0.3-0.2,0.4-0.4L171.4,107.3L171.4,107.3z"/>
</g>
<g>
	<path d="M263.1,11.1v0.2c-0.5-0.2-0.9-0.5-1.2-0.9c-0.5-0.5-0.8-1-1.1-1.7s-0.4-1.3-0.4-2c0-1,0.2-1.9,0.7-2.8
		c0.5-0.8,1.1-1.4,1.9-1.8v0.2c-0.4,0.2-0.7,0.5-1,0.9s-0.4,0.9-0.6,1.5s-0.2,1.2-0.2,1.8c0,0.7,0.1,1.3,0.2,1.9
		c0.1,0.4,0.2,0.8,0.3,1.1c0.1,0.3,0.3,0.5,0.5,0.8C262.5,10.6,262.7,10.8,263.1,11.1z"/>
	<path d="M263.8,3.7c0.2-0.4,0.4-0.8,0.7-1c0.3-0.2,0.6-0.4,1.1-0.4s0.9,0.2,1.2,0.5c0.2,0.3,0.3,0.5,0.3,0.8c0,0.5-0.3,1-0.9,1.5
		c0.4,0.2,0.7,0.4,0.9,0.7s0.3,0.6,0.3,1c0,0.6-0.2,1.1-0.5,1.5c-0.5,0.5-1.2,0.8-2.1,0.8c-0.4,0-0.7-0.1-0.9-0.2s-0.2-0.2-0.2-0.4
		c0-0.1,0-0.2,0.1-0.2c0.1-0.1,0.2-0.1,0.3-0.1c0.1,0,0.2,0,0.2,0c0.1,0,0.2,0.1,0.4,0.2s0.3,0.2,0.4,0.2s0.2,0.1,0.4,0.1
		c0.3,0,0.6-0.1,0.9-0.4c0.2-0.3,0.4-0.6,0.4-0.9s-0.1-0.5-0.2-0.8c-0.1-0.2-0.2-0.3-0.3-0.4c-0.1-0.1-0.3-0.2-0.6-0.4
		c-0.2-0.1-0.5-0.2-0.7-0.2h-0.2v0.1c0.3,0,0.5-0.1,0.8-0.3s0.4-0.3,0.6-0.6s0.2-0.5,0.2-0.7c0-0.3-0.1-0.6-0.3-0.8
		c-0.2-0.2-0.5-0.3-0.8-0.3c-0.5,0-0.9,0.3-1.3,0.8L263.8,3.7z"/>
	<path d="M275.4,6.7v0.7h-0.9v1.7h-0.8V7.4h-2.8V6.7l3.1-4.4h0.5v4.3L275.4,6.7L275.4,6.7z M273.7,6.7V3.4l-2.3,3.3H273.7z"/>
	<path d="M276,2.4V2.2c0.5,0.2,0.9,0.5,1.2,0.9c0.5,0.5,0.8,1,1.1,1.7s0.4,1.3,0.4,2c0,1-0.2,1.9-0.7,2.8c-0.5,0.8-1.1,1.4-2,1.8
		v-0.2c0.4-0.2,0.7-0.5,1-0.9s0.5-0.9,0.6-1.5s0.2-1.2,0.2-1.8c0-0.7-0.1-1.3-0.2-1.9c-0.1-0.4-0.2-0.8-0.3-1.1s-0.3-0.5-0.5-0.8
		S276.3,2.6,276,2.4z"/>
</g>
<g>
	<path d="M343.6,105.7v0.8h-1.1v2.1h-1v-2.1h-3.4v-0.8l3.7-5.3h0.6v5.2h1.2V105.7z M341.6,105.7v-3.9l-2.8,3.9H341.6z"/>
</g>
<g>
	<path d="M253.5,102c0.2-0.5,0.5-0.9,0.9-1.2s0.8-0.4,1.3-0.4c0.6,0,1.1,0.2,1.5,0.6c0.3,0.3,0.4,0.6,0.4,1c0,0.6-0.4,1.2-1.1,1.8
		c0.5,0.2,0.9,0.5,1.1,0.8s0.4,0.8,0.4,1.3c0,0.7-0.2,1.3-0.7,1.8c-0.6,0.7-1.4,1-2.5,1c-0.5,0-0.9-0.1-1.1-0.2s-0.3-0.3-0.3-0.4
		s0-0.2,0.1-0.3s0.2-0.1,0.3-0.1s0.2,0,0.3,0s0.2,0.1,0.5,0.2s0.4,0.2,0.5,0.2s0.3,0.1,0.5,0.1c0.4,0,0.7-0.2,1-0.5s0.4-0.7,0.4-1.1
		c0-0.3-0.1-0.6-0.2-0.9c-0.1-0.2-0.2-0.4-0.3-0.5c-0.2-0.2-0.4-0.3-0.7-0.4s-0.6-0.2-0.9-0.2h-0.2v-0.2c0.3,0,0.6-0.2,0.9-0.3
		s0.5-0.4,0.7-0.7s0.2-0.5,0.2-0.8c0-0.4-0.1-0.7-0.4-1s-0.6-0.4-0.9-0.4c-0.6,0-1.1,0.3-1.5,1L253.5,102z"/>
</g>
<g>
	<rect x="68.4" y="42.9" class="st0" width="28.1" height="28.1"/>
	<path d="M86.4,56.9c0,2.1-1.7,3.9-3.9,3.9c-2.1,0-3.9-1.7-3.9-3.9c0-2.1,1.7-3.9,3.9-3.9C84.6,53.1,86.4,54.8,86.4,56.9"/>
</g>
<g>
	<rect x="96.5" y="42.9" class="st0" width="28.1" height="28.1"/>
	<path d="M114.4,56.9c0,2.1-1.7,3.9-3.9,3.9c-2.1,0-3.9-1.7-3.9-3.9c0-2.1,1.7-3.9,3.9-3.9C112.6,53.1,114.4,54.8,114.4,56.9"/>
</g>
<g>
	<path d="M80.9,101.6l1.9-0.9H83v6.7c0,0.4,0,0.7,0.1,0.8c0.1,0.1,0.1,0.2,0.2,0.3c0.1,0.1,0.4,0.1,0.7,0.1v0.2h-3v-0.2
		c0.4,0,0.6,0,0.7-0.1c0.1-0.1,0.2-0.1,0.2-0.2s0.1-0.4,0.1-0.9v-4.3c0-0.6,0-0.9-0.1-1.1c0-0.1-0.1-0.2-0.1-0.3s-0.2-0.1-0.3-0.1
		s-0.3,0.1-0.6,0.2L80.9,101.6z"/>
</g>
<rect x="68.4" y="90.7" class="st0" width="28.1" height="28.1"/>
<g>
	<g>
		<line class="st0" x1="82.4" y1="57" x2="82.4" y2="86.3"/>
		<g>
			<polygon points="81,85.3 82.4,90.7 83.9,85.3 			"/>
		</g>
	</g>
</g>
<g>
	<g>
		<line class="st0" x1="36.3" y1="56.9" x2="64.2" y2="57"/>
		<g>
			<polygon points="63.2,58.4 68.6,57 63.2,55.5 			"/>
		</g>
	</g>
</g>
<g>
	<rect x="154.7" y="42.9" class="st0" width="28.1" height="28.1"/>
	<path d="M172.6,57c0,2.1-1.7,3.9-3.9,3.9c-2.1,0-3.9-1.7-3.9-3.9c0-2.1,1.7-3.9,3.9-3.9C170.8,53.2,172.6,54.9,172.6,57"/>
</g>
<g>
	<rect x="182.8" y="42.9" class="st0" width="28.1" height="28.1"/>
	<path d="M200.7,57c0,2.1-1.7,3.9-3.9,3.9c-2.1,0-3.9-1.7-3.9-3.9c0-2.1,1.7-3.9,3.9-3.9C198.9,53.2,200.7,54.9,200.7,57"/>
</g>
<rect x="154.7" y="90.7" class="st0" width="28.1" height="28.1"/>
<g>
	<g>
		<line class="st1" x1="124.6" y1="56.9" x2="150.2" y2="57"/>
		<g>
			<polygon points="149.2,58.4 154.7,57 149.2,55.5 			"/>
		</g>
	</g>
</g>
<g>
	<g>
		<line class="st1" x1="168.7" y1="57" x2="168.7" y2="86.3"/>
		<g>
			<polygon points="167.2,85.3 168.7,90.7 170.2,85.3 			"/>
		</g>
	</g>
</g>
<g>
	<g>
		<line class="st1" x1="182.8" y1="13.4" x2="182.8" y2="38.5"/>
		<g>
			<polygon points="181.3,37.5 182.8,42.9 184.2,37.5 			"/>
		</g>
	</g>
</g>
<g>
	<rect x="241.1" y="43.1" class="st0" width="28.1" height="28.1"/>
	<path d="M259.1,57.2c0,2.1-1.7,3.9-3.9,3.9c-2.1,0-3.9-1.7-3.9-3.9c0-2.1,1.7-3.9,3.9-3.9C257.3,53.4,259.1,55.1,259.1,57.2"/>
</g>
<g>
	<rect x="269.2" y="43.1" class="st0" width="28.1" height="28.1"/>
	<path d="M287.2,57.2c0,2.1-1.7,3.9-3.9,3.9c-2.1,0-3.9-1.7-3.9-3.9c0-2.1,1.7-3.9,3.9-3.9C285.4,53.4,287.2,55.1,287.2,57.2"/>
</g>
<rect x="241.1" y="90.7" class="st0" width="28.1" height="28.1"/>
<g>
	<g>
		<line class="st1" x1="255.2" y1="57.2" x2="255.2" y2="86.3"/>
		<g>
			<polygon points="253.7,85.3 255.2,90.7 256.6,85.3 			"/>
		</g>
	</g>
</g>
<g>
	<g>
		<line class="st1" x1="269.2" y1="13" x2="269.2" y2="38.7"/>
		<g>
			<polygon points="267.7,37.7 269.2,43.1 270.7,37.7 			"/>
		</g>
	</g>
</g>
<g>
	<rect x="327.1" y="43.1" class="st0" width="28.1" height="28.1"/>
	<path d="M345,57.2c0,2.1-1.7,3.9-3.9,3.9c-2.1,0-3.9-1.7-3.9-3.9c0-2.1,1.7-3.9,3.9-3.9C343.2,53.4,345,55.1,345,57.2"/>
</g>
<rect x="355.1" y="43.1" class="st0" width="28.1" height="28.1"/>
<line class="st0" x1="355.1" y1="71.2" x2="383.3" y2="43.1"/>
<rect x="327.1" y="90.7" class="st0" width="28.1" height="28.1"/>
<g>
	<g>
		<line class="st1" x1="340.8" y1="57.2" x2="340.8" y2="86.3"/>
		<g>
			<polygon points="339.4,85.3 340.8,90.7 342.3,85.3 			"/>
		</g>
	</g>
</g>
<g>
	<g>
		<line class="st1" x1="297.3" y1="57" x2="322.6" y2="57"/>
		<g>
			<polygon points="321.6,58.5 327.1,57 321.6,55.5 			"/>
		</g>
	</g>
</g>
<g>
	<g>
		<line class="st0" x1="210.9" y1="57.2" x2="236.7" y2="57.2"/>
		<g>
			<polygon points="235.7,58.6 241.1,57.2 235.7,55.7 			"/>
		</g>
	</g>
</g>
<g>
</g>
</svg>
