<?xml version="1.0" encoding="utf-8"?>
<!-- Generator: Adobe Illustrator 23.0.5, SVG Export Plug-In . SVG Version: 6.00 Build 0)  -->
<svg version="1.1" id="图层_1" xmlns="http://www.w3.org/2000/svg" xmlns:xlink="http://www.w3.org/1999/xlink" x="0px" y="0px"
	 viewBox="0 0 262.2 183.3" style="enable-background:new 0 0 262.2 183.3;" xml:space="preserve">
<style type="text/css">
	.st0{fill:none;stroke:#000000;stroke-width:0.5;}
</style>
<path d="M74.3,24.8c0,2.1-1.7,3.9-3.9,3.9c-2.1,0-3.9-1.7-3.9-3.9c0-2.1,1.7-3.9,3.9-3.9C72.6,20.9,74.3,22.7,74.3,24.8"/>
<g>
	<path d="M50.6,15.4v0.2c-0.5-0.2-0.9-0.5-1.2-0.9c-0.5-0.5-0.8-1-1.1-1.7s-0.4-1.3-0.4-2c0-1,0.2-1.9,0.7-2.8
		c0.5-0.8,1.1-1.4,1.9-1.8v0.2c-0.4,0.2-0.7,0.5-1,0.9S49.2,8.4,49.1,9s-0.2,1.2-0.2,1.8c0,0.7,0.1,1.3,0.2,1.9
		c0.1,0.4,0.2,0.8,0.3,1.1s0.3,0.5,0.5,0.8S50.3,15.1,50.6,15.4z"/>
	<path d="M52,7.4l1.6-0.8h0.2v5.6c0,0.4,0,0.6,0,0.7s0.1,0.2,0.2,0.2s0.3,0.1,0.6,0.1v0.2h-2.5v-0.2c0.3,0,0.5,0,0.6-0.1
		c0.1,0,0.2-0.1,0.2-0.2c0-0.1,0.1-0.3,0.1-0.7V8.7c0-0.5,0-0.8,0-0.9s-0.1-0.2-0.1-0.2s-0.1-0.1-0.2-0.1c-0.1,0-0.3,0.1-0.5,0.2
		L52,7.4z"/>
	<path d="M61.5,15.4v0.2c-0.5-0.2-0.9-0.5-1.2-0.9c-0.5-0.5-0.8-1-1.1-1.7s-0.4-1.3-0.4-2c0-1,0.2-1.9,0.7-2.8
		c0.5-0.8,1.1-1.4,1.9-1.8v0.2c-0.4,0.2-0.7,0.5-1,0.9S60,8.4,59.9,9s-0.2,1.2-0.2,1.8c0,0.7,0.1,1.3,0.2,1.9
		c0.1,0.4,0.2,0.8,0.3,1.1s0.3,0.5,0.5,0.8S61.1,15.1,61.5,15.4z"/>
	<path d="M66.3,12.1l-0.5,1.3h-3.9v-0.2c1.1-1,2-1.9,2.4-2.6S65,9.4,65,8.8c0-0.4-0.1-0.8-0.4-1S64,7.4,63.7,7.4
		c-0.3,0-0.6,0.1-0.9,0.3s-0.5,0.5-0.6,0.8H62c0.1-0.6,0.3-1.1,0.6-1.4s0.8-0.5,1.3-0.5s1,0.2,1.3,0.5s0.5,0.8,0.5,1.2
		c0,0.3-0.1,0.7-0.2,1c-0.2,0.5-0.6,1.1-1.2,1.7c-0.8,0.9-1.3,1.4-1.5,1.6h1.7c0.4,0,0.6,0,0.7,0s0.3-0.1,0.4-0.2
		c0.1-0.1,0.2-0.2,0.3-0.3H66.3z"/>
	<path d="M72.3,15.4v0.2c-0.5-0.2-0.9-0.5-1.2-0.9c-0.5-0.5-0.8-1-1.1-1.7s-0.4-1.3-0.4-2c0-1,0.2-1.9,0.7-2.8
		c0.5-0.8,1.1-1.4,1.9-1.8v0.2c-0.4,0.2-0.7,0.5-1,0.9S70.9,8.4,70.7,9s-0.2,1.2-0.2,1.8c0,0.7,0.1,1.3,0.2,1.9
		c0.1,0.4,0.2,0.8,0.3,1.1c0.1,0.3,0.3,0.5,0.5,0.8S72,15.1,72.3,15.4z"/>
	<path d="M73.1,8c0.2-0.4,0.4-0.8,0.7-1c0.3-0.2,0.6-0.4,1.1-0.4s0.9,0.2,1.2,0.5c0.2,0.3,0.3,0.5,0.3,0.8c0,0.5-0.3,1-0.9,1.5
		c0.4,0.2,0.7,0.4,0.9,0.7s0.3,0.6,0.3,1c0,0.6-0.2,1.1-0.5,1.5c-0.5,0.5-1.2,0.8-2.1,0.8c-0.4,0-0.7-0.1-0.9-0.2S73,13,73,12.8
		c0-0.1,0-0.2,0.1-0.2s0.2-0.1,0.3-0.1c0.1,0,0.2,0,0.2,0c0.1,0,0.2,0.1,0.4,0.2s0.3,0.2,0.4,0.2s0.2,0.1,0.4,0.1
		c0.3,0,0.6-0.1,0.9-0.4s0.4-0.6,0.4-0.9c0-0.3-0.1-0.5-0.2-0.8c-0.1-0.2-0.2-0.3-0.3-0.4c-0.1-0.1-0.3-0.2-0.6-0.4
		c-0.2-0.1-0.5-0.2-0.7-0.2h-0.2V10c0.3,0,0.5-0.1,0.8-0.3s0.4-0.3,0.6-0.6s0.2-0.5,0.2-0.7c0-0.3-0.1-0.6-0.3-0.8
		c-0.2-0.2-0.5-0.3-0.8-0.3c-0.5,0-0.9,0.3-1.3,0.8L73.1,8z"/>
	<path d="M84.7,11v0.7h-0.9v1.7H83v-1.7h-2.8V11l3.1-4.4h0.5V11H84.7z M83,11V7.7L80.7,11H83z"/>
	<path d="M85.3,6.7V6.5c0.5,0.2,0.9,0.5,1.2,0.9c0.5,0.5,0.8,1,1.1,1.7s0.4,1.3,0.4,2c0,1-0.2,1.9-0.7,2.8c-0.5,0.8-1.1,1.4-2,1.8
		v-0.2c0.4-0.2,0.7-0.5,1-0.9s0.5-0.9,0.6-1.5s0.2-1.2,0.2-1.8c0-0.7-0.1-1.3-0.2-1.9c-0.1-0.4-0.2-0.8-0.3-1.1s-0.3-0.5-0.5-0.8
		S85.6,6.9,85.3,6.7z"/>
	<path d="M88.6,6.7V6.5c0.5,0.2,0.9,0.5,1.2,0.9c0.5,0.5,0.8,1,1.1,1.7s0.4,1.3,0.4,2c0,1-0.2,1.9-0.7,2.8c-0.5,0.8-1.1,1.4-2,1.8
		v-0.2c0.4-0.2,0.7-0.5,1-0.9s0.5-0.9,0.6-1.5s0.2-1.2,0.2-1.8c0-0.7-0.1-1.3-0.2-1.9C90.1,9,90,8.6,89.9,8.3s-0.3-0.5-0.5-0.8
		S88.9,6.9,88.6,6.7z"/>
	<path d="M91.9,6.7V6.5c0.5,0.2,0.9,0.5,1.2,0.9c0.5,0.5,0.8,1,1.1,1.7s0.4,1.3,0.4,2c0,1-0.2,1.9-0.7,2.8c-0.5,0.8-1.1,1.4-2,1.8
		v-0.2c0.4-0.2,0.7-0.5,1-0.9s0.5-0.9,0.6-1.5s0.2-1.2,0.2-1.8c0-0.7-0.1-1.3-0.2-1.9c-0.1-0.4-0.2-0.8-0.3-1.1s-0.3-0.5-0.5-0.8
		S92.3,6.9,91.9,6.7z"/>
</g>
<g>
	<path d="M128.4,63.8V64c-0.5-0.2-0.9-0.5-1.2-0.9c-0.5-0.5-0.8-1-1.1-1.7s-0.4-1.3-0.4-2c0-1,0.2-1.9,0.7-2.8
		c0.5-0.8,1.1-1.4,1.9-1.8V55c-0.4,0.2-0.7,0.5-1,0.9s-0.4,0.9-0.6,1.5s-0.2,1.2-0.2,1.8c0,0.7,0.1,1.3,0.2,1.9
		c0.1,0.4,0.2,0.8,0.3,1.1c0.1,0.3,0.3,0.5,0.5,0.8S128.1,63.6,128.4,63.8z"/>
	<path d="M133.2,60.5l-0.5,1.3h-3.9v-0.2c1.1-1,2-1.9,2.4-2.6c0.5-0.7,0.7-1.3,0.7-1.8c0-0.4-0.1-0.8-0.4-1
		c-0.3-0.3-0.6-0.4-0.9-0.4c-0.3,0-0.6,0.1-0.9,0.3s-0.5,0.5-0.6,0.8H129c0.1-0.6,0.3-1.1,0.6-1.4s0.8-0.5,1.3-0.5s1,0.2,1.3,0.5
		s0.5,0.8,0.5,1.2c0,0.3-0.1,0.7-0.2,1c-0.2,0.5-0.6,1.1-1.2,1.7c-0.8,0.9-1.3,1.4-1.5,1.6h1.7c0.4,0,0.6,0,0.7,0
		c0.1,0,0.3-0.1,0.4-0.2c0.1-0.1,0.2-0.2,0.3-0.3C132.9,60.5,133.2,60.5,133.2,60.5z"/>
	<path d="M139.2,63.8V64c-0.5-0.2-0.9-0.5-1.2-0.9c-0.5-0.5-0.8-1-1.1-1.7s-0.4-1.3-0.4-2c0-1,0.2-1.9,0.7-2.8
		c0.5-0.8,1.1-1.4,1.9-1.8V55c-0.4,0.2-0.7,0.5-1,0.9s-0.4,0.9-0.6,1.5s-0.2,1.2-0.2,1.8c0,0.7,0.1,1.3,0.2,1.9
		c0.1,0.4,0.2,0.8,0.3,1.1s0.3,0.5,0.5,0.8C138.6,63.3,138.9,63.6,139.2,63.8z"/>
	<path d="M139.9,56.5c0.2-0.4,0.4-0.8,0.7-1s0.6-0.4,1.1-0.4s0.9,0.2,1.2,0.5c0.2,0.3,0.3,0.5,0.3,0.8c0,0.5-0.3,1-0.9,1.5
		c0.4,0.2,0.7,0.4,0.9,0.7s0.3,0.6,0.3,1c0,0.6-0.2,1.1-0.5,1.5c-0.5,0.5-1.2,0.8-2.1,0.8c-0.4,0-0.7-0.1-0.9-0.2s-0.2-0.2-0.2-0.4
		c0-0.1,0-0.2,0.1-0.2c0.1-0.1,0.2-0.1,0.3-0.1s0.2,0,0.2,0c0.1,0,0.2,0.1,0.4,0.2s0.3,0.2,0.4,0.2c0.1,0,0.2,0.1,0.4,0.1
		c0.3,0,0.6-0.1,0.9-0.4c0.2-0.3,0.4-0.6,0.4-0.9c0-0.3-0.1-0.5-0.2-0.8c-0.1-0.2-0.2-0.3-0.3-0.4c-0.1-0.1-0.3-0.2-0.6-0.4
		c-0.2-0.1-0.5-0.2-0.7-0.2H141v-0.1c0.3,0,0.5-0.1,0.8-0.3s0.4-0.3,0.6-0.6s0.2-0.5,0.2-0.7c0-0.3-0.1-0.6-0.3-0.8
		s-0.5-0.3-0.8-0.3c-0.5,0-0.9,0.3-1.3,0.8L139.9,56.5z"/>
	<path d="M151.6,59.4v0.7h-0.9v1.7h-0.8v-1.7h-2.8v-0.6l3.1-4.4h0.5v4.3H151.6z M149.9,59.4v-3.3l-2.3,3.3H149.9z"/>
	<path d="M152.2,55.1v-0.2c0.5,0.2,0.9,0.5,1.2,0.9c0.5,0.5,0.8,1,1.1,1.7s0.4,1.3,0.4,2c0,1-0.2,1.9-0.7,2.8
		c-0.5,0.8-1.1,1.4-2,1.8v-0.2c0.4-0.2,0.7-0.5,1-0.9s0.5-0.9,0.6-1.5s0.2-1.2,0.2-1.8c0-0.7-0.1-1.3-0.2-1.9
		c-0.1-0.4-0.2-0.8-0.3-1.1s-0.3-0.5-0.5-0.8S152.5,55.3,152.2,55.1z"/>
	<path d="M155.5,55.1v-0.2c0.5,0.2,0.9,0.5,1.2,0.9c0.5,0.5,0.8,1,1.1,1.7s0.4,1.3,0.4,2c0,1-0.2,1.9-0.7,2.8
		c-0.5,0.8-1.1,1.4-2,1.8v-0.2c0.4-0.2,0.7-0.5,1-0.9s0.5-0.9,0.6-1.5s0.2-1.2,0.2-1.8c0-0.7-0.1-1.3-0.2-1.9
		c-0.1-0.4-0.2-0.8-0.3-1.1s-0.3-0.5-0.5-0.8S155.8,55.3,155.5,55.1z"/>
</g>
<g>
	<path d="M189.8,114.5v0.2c-0.5-0.2-0.9-0.5-1.2-0.9c-0.5-0.5-0.8-1-1.1-1.7c-0.3-0.6-0.4-1.3-0.4-2c0-1,0.2-1.9,0.7-2.8
		c0.5-0.8,1.1-1.4,1.9-1.8v0.2c-0.4,0.2-0.7,0.5-1,0.9s-0.4,0.9-0.6,1.5c-0.1,0.6-0.2,1.2-0.2,1.8c0,0.7,0.1,1.3,0.2,1.9
		c0.1,0.4,0.2,0.8,0.3,1.1c0.1,0.3,0.3,0.5,0.5,0.8C189.2,114,189.5,114.2,189.8,114.5z"/>
	<path d="M190.6,107.1c0.2-0.4,0.4-0.8,0.7-1s0.6-0.4,1.1-0.4s0.9,0.2,1.2,0.5c0.2,0.3,0.3,0.5,0.3,0.8c0,0.5-0.3,1-0.9,1.5
		c0.4,0.2,0.7,0.4,0.9,0.7c0.2,0.3,0.3,0.6,0.3,1c0,0.6-0.2,1.1-0.5,1.5c-0.5,0.5-1.2,0.8-2.1,0.8c-0.4,0-0.7-0.1-0.9-0.2
		s-0.2-0.2-0.2-0.4c0-0.1,0-0.2,0.1-0.2c0.1-0.1,0.2-0.1,0.3-0.1s0.2,0,0.2,0c0.1,0,0.2,0.1,0.4,0.2s0.3,0.2,0.4,0.2
		c0.1,0,0.2,0.1,0.4,0.1c0.3,0,0.6-0.1,0.9-0.4c0.2-0.3,0.4-0.6,0.4-0.9s-0.1-0.5-0.2-0.8c-0.1-0.2-0.2-0.3-0.3-0.4
		s-0.3-0.2-0.6-0.4c-0.2-0.1-0.5-0.2-0.7-0.2h-0.2v-0.1c0.3,0,0.5-0.1,0.8-0.3c0.3-0.2,0.4-0.3,0.6-0.6s0.2-0.5,0.2-0.7
		c0-0.3-0.1-0.6-0.3-0.8c-0.2-0.2-0.5-0.3-0.8-0.3c-0.5,0-0.9,0.3-1.3,0.8L190.6,107.1z"/>
	<path d="M202.2,110.1v0.7h-0.9v1.7h-0.8v-1.7h-2.8v-0.6l3.1-4.4h0.5v4.3H202.2z M200.5,110.1v-3.3l-2.3,3.3H200.5z"/>
	<path d="M202.8,105.8v-0.2c0.5,0.2,0.9,0.5,1.2,0.9c0.5,0.5,0.8,1,1.1,1.7s0.4,1.3,0.4,2c0,1-0.2,1.9-0.7,2.8
		c-0.5,0.8-1.1,1.4-2,1.8v-0.2c0.4-0.2,0.7-0.5,1-0.9s0.5-0.9,0.6-1.5s0.2-1.2,0.2-1.8c0-0.7-0.1-1.3-0.2-1.9
		c-0.1-0.4-0.2-0.8-0.3-1.1c-0.1-0.3-0.3-0.5-0.5-0.8C203.4,106.2,203.1,106,202.8,105.8z"/>
</g>
<line class="st0" x1="70.4" y1="24.6" x2="10.2" y2="72.3"/>
<line class="st0" x1="70.4" y1="24.6" x2="130.6" y2="72.3"/>
<path d="M134.7,73.1c0,2.1-1.7,3.9-3.9,3.9c-2.1,0-3.9-1.7-3.9-3.9c0-2.1,1.7-3.9,3.9-3.9C133,69.3,134.7,71,134.7,73.1"/>
<g>
	<path d="M6.4,75.3L8,74.5h0.2v5.6c0,0.4,0,0.6,0,0.7S8.3,81,8.4,81s0.3,0.1,0.6,0.1v0.2H6.5v-0.2c0.3,0,0.5,0,0.6-0.1
		c0.1,0,0.2-0.1,0.2-0.2s0.1-0.3,0.1-0.7v-3.6c0-0.5,0-0.8,0-0.9s-0.1-0.2-0.1-0.2L7,75.3c-0.1,0-0.3,0.1-0.5,0.2L6.4,75.3z"/>
</g>
<line class="st0" x1="130.6" y1="72.3" x2="70.4" y2="120.1"/>
<line class="st0" x1="130.6" y1="72.3" x2="190.8" y2="120.1"/>
<g>
	<path d="M69.5,128.1l-0.5,1.3h-3.9v-0.2c1.1-1,2-1.9,2.4-2.6s0.7-1.3,0.7-1.8c0-0.4-0.1-0.8-0.4-1c-0.3-0.3-0.6-0.4-0.9-0.4
		s-0.6,0.1-0.9,0.3s-0.5,0.5-0.6,0.8h-0.2c0.1-0.6,0.3-1.1,0.6-1.4s0.8-0.5,1.3-0.5s1,0.2,1.3,0.5c0.4,0.3,0.5,0.8,0.5,1.2
		c0,0.3-0.1,0.7-0.2,1c-0.2,0.5-0.6,1.1-1.2,1.7c-0.8,0.9-1.3,1.4-1.5,1.6h1.7c0.4,0,0.6,0,0.7,0s0.3-0.1,0.4-0.2
		c0.1-0.1,0.2-0.2,0.3-0.3H69.5z"/>
</g>
<path d="M194.6,120.6c0,2.1-1.7,3.9-3.9,3.9c-2.1,0-3.9-1.7-3.9-3.9c0-2.1,1.7-3.9,3.9-3.9C192.9,116.7,194.6,118.5,194.6,120.6"/>
<line class="st0" x1="190.8" y1="120.1" x2="130.6" y2="167.8"/>
<line class="st0" x1="190.8" y1="120.1" x2="251" y2="167.8"/>
<g>
	<path d="M126.7,171.8c0.2-0.4,0.4-0.8,0.7-1c0.3-0.2,0.6-0.4,1.1-0.4c0.5,0,0.9,0.2,1.2,0.5c0.2,0.3,0.3,0.5,0.3,0.8
		c0,0.5-0.3,1-0.9,1.5c0.4,0.2,0.7,0.4,0.9,0.7s0.3,0.6,0.3,1c0,0.6-0.2,1.1-0.5,1.5c-0.5,0.5-1.2,0.8-2.1,0.8
		c-0.4,0-0.7-0.1-0.9-0.2c-0.2-0.1-0.2-0.2-0.2-0.4c0-0.1,0-0.2,0.1-0.2c0.1-0.1,0.2-0.1,0.3-0.1c0.1,0,0.2,0,0.2,0
		c0.1,0,0.2,0.1,0.4,0.2s0.3,0.2,0.4,0.2c0.1,0,0.2,0.1,0.4,0.1c0.3,0,0.6-0.1,0.9-0.4c0.2-0.3,0.4-0.6,0.4-0.9
		c0-0.3-0.1-0.5-0.2-0.8c-0.1-0.2-0.2-0.3-0.3-0.4c-0.1-0.1-0.3-0.2-0.6-0.4c-0.2-0.1-0.5-0.2-0.7-0.2h-0.2v-0.1
		c0.3,0,0.5-0.1,0.8-0.3s0.4-0.3,0.6-0.6s0.2-0.5,0.2-0.7c0-0.3-0.1-0.6-0.3-0.8s-0.5-0.3-0.8-0.3c-0.5,0-0.9,0.3-1.3,0.8
		L126.7,171.8z"/>
</g>
<g>
	<path d="M255.8,174v0.7h-0.9v1.7h-0.8v-1.7h-2.8v-0.6l3.1-4.4h0.5v4.3H255.8z M254.1,174v-3.3l-2.3,3.3H254.1z"/>
</g>
</svg>
