<?xml version="1.0" encoding="utf-8"?>
<!-- Generator: Adobe Illustrator 23.0.5, SVG Export Plug-In . SVG Version: 6.00 Build 0)  -->
<svg version="1.1" id="图层_1" xmlns="http://www.w3.org/2000/svg" xmlns:xlink="http://www.w3.org/1999/xlink" x="0px" y="0px"
	 viewBox="0 0 161.5 158.4" style="enable-background:new 0 0 161.5 158.4;" xml:space="preserve">
<style type="text/css">
	.st0{fill:none;stroke:#000000;stroke-miterlimit:10;}
	.st1{fill:none;stroke:#000000;stroke-width:0.7;stroke-miterlimit:10;}
</style>
<line class="st0" x1="8.5" y1="7" x2="152.5" y2="7"/>
<line class="st0" x1="8.5" y1="25" x2="152.5" y2="25"/>
<line class="st0" x1="8.5" y1="43" x2="152.5" y2="43"/>
<line class="st0" x1="8.5" y1="61" x2="152.5" y2="61"/>
<line class="st0" x1="8.5" y1="79" x2="152.5" y2="79"/>
<line class="st0" x1="8.5" y1="97" x2="152.5" y2="97"/>
<line class="st0" x1="8.5" y1="115" x2="152.5" y2="115"/>
<line class="st0" x1="8.5" y1="133" x2="152.5" y2="133"/>
<line class="st0" x1="8.5" y1="151" x2="152.5" y2="151"/>
<line class="st0" x1="8.5" y1="7" x2="8.5" y2="151"/>
<line class="st0" x1="26.5" y1="7" x2="26.5" y2="151"/>
<line class="st0" x1="44.5" y1="7" x2="44.5" y2="151"/>
<line class="st0" x1="62.5" y1="7" x2="62.5" y2="151"/>
<line class="st0" x1="80.5" y1="7" x2="80.5" y2="151"/>
<line class="st0" x1="98.5" y1="7" x2="98.5" y2="151"/>
<line class="st0" x1="116.5" y1="7" x2="116.5" y2="151"/>
<line class="st0" x1="134.5" y1="7" x2="134.5" y2="151"/>
<line class="st0" x1="152.5" y1="7" x2="152.5" y2="151"/>
<g>
	<ellipse class="st1" cx="17.5" cy="57.7" rx="5.8" ry="1.8"/>
	<line class="st1" x1="14" y1="50.4" x2="16.2" y2="44.6"/>
	<line class="st1" x1="17.5" y1="52.5" x2="16.2" y2="44.6"/>
	<line class="st1" x1="12.2" y1="45" x2="14" y2="50.5"/>
	<line class="st1" x1="10.9" y1="53" x2="12.2" y2="45"/>
	<line class="st1" x1="11.5" y1="57.7" x2="10.9" y2="53"/>
	<line class="st1" x1="21" y1="50.4" x2="18.9" y2="44.6"/>
	<line class="st1" x1="17.5" y1="52.5" x2="18.9" y2="44.6"/>
	<line class="st1" x1="22.9" y1="45" x2="21" y2="50.5"/>
	<line class="st1" x1="24.2" y1="53" x2="22.9" y2="45"/>
	<line class="st1" x1="23.5" y1="57.7" x2="24.2" y2="53"/>
</g>
<g>
	<ellipse class="st1" cx="35.5" cy="129.7" rx="5.8" ry="1.8"/>
	<line class="st1" x1="32" y1="122.4" x2="34.2" y2="116.6"/>
	<line class="st1" x1="35.5" y1="124.5" x2="34.2" y2="116.6"/>
	<line class="st1" x1="30.2" y1="117" x2="32" y2="122.5"/>
	<line class="st1" x1="28.9" y1="125" x2="30.2" y2="117"/>
	<line class="st1" x1="29.5" y1="129.7" x2="28.9" y2="125"/>
	<line class="st1" x1="39" y1="122.4" x2="36.9" y2="116.6"/>
	<line class="st1" x1="35.5" y1="124.5" x2="36.9" y2="116.6"/>
	<line class="st1" x1="40.9" y1="117" x2="39" y2="122.5"/>
	<line class="st1" x1="42.2" y1="125" x2="40.9" y2="117"/>
	<line class="st1" x1="41.5" y1="129.7" x2="42.2" y2="125"/>
</g>
<g>
	<ellipse class="st1" cx="53.1" cy="39.7" rx="5.8" ry="1.8"/>
	<line class="st1" x1="49.7" y1="32.4" x2="51.9" y2="26.6"/>
	<line class="st1" x1="53.1" y1="34.5" x2="51.9" y2="26.6"/>
	<line class="st1" x1="47.9" y1="27" x2="49.7" y2="32.5"/>
	<line class="st1" x1="46.6" y1="35" x2="47.9" y2="27"/>
	<line class="st1" x1="47.2" y1="39.7" x2="46.6" y2="35"/>
	<line class="st1" x1="56.7" y1="32.4" x2="54.6" y2="26.6"/>
	<line class="st1" x1="53.1" y1="34.5" x2="54.6" y2="26.6"/>
	<line class="st1" x1="58.6" y1="27" x2="56.7" y2="32.5"/>
	<line class="st1" x1="59.9" y1="35" x2="58.6" y2="27"/>
	<line class="st1" x1="59.2" y1="39.7" x2="59.9" y2="35"/>
</g>
<g>
	<ellipse class="st1" cx="71.5" cy="147.7" rx="5.8" ry="1.8"/>
	<line class="st1" x1="68" y1="140.4" x2="70.2" y2="134.6"/>
	<line class="st1" x1="71.5" y1="142.5" x2="70.2" y2="134.6"/>
	<line class="st1" x1="66.2" y1="135" x2="68" y2="140.5"/>
	<line class="st1" x1="64.9" y1="143" x2="66.2" y2="135"/>
	<line class="st1" x1="65.5" y1="147.7" x2="64.9" y2="143"/>
	<line class="st1" x1="75" y1="140.4" x2="72.9" y2="134.6"/>
	<line class="st1" x1="71.5" y1="142.5" x2="72.9" y2="134.6"/>
	<line class="st1" x1="76.9" y1="135" x2="75" y2="140.5"/>
	<line class="st1" x1="78.2" y1="143" x2="76.9" y2="135"/>
	<line class="st1" x1="77.5" y1="147.7" x2="78.2" y2="143"/>
</g>
<g>
	<ellipse class="st1" cx="89.5" cy="93.7" rx="5.8" ry="1.8"/>
	<line class="st1" x1="86" y1="86.4" x2="88.2" y2="80.6"/>
	<line class="st1" x1="89.5" y1="88.5" x2="88.2" y2="80.6"/>
	<line class="st1" x1="84.2" y1="81" x2="86" y2="86.5"/>
	<line class="st1" x1="82.9" y1="89" x2="84.2" y2="81"/>
	<line class="st1" x1="83.5" y1="93.7" x2="82.9" y2="89"/>
	<line class="st1" x1="93" y1="86.4" x2="90.9" y2="80.6"/>
	<line class="st1" x1="89.5" y1="88.5" x2="90.9" y2="80.6"/>
	<line class="st1" x1="94.9" y1="81" x2="93" y2="86.5"/>
	<line class="st1" x1="96.2" y1="89" x2="94.9" y2="81"/>
	<line class="st1" x1="95.5" y1="93.7" x2="96.2" y2="89"/>
</g>
<g>
	<ellipse class="st1" cx="107.5" cy="21.7" rx="5.8" ry="1.8"/>
	<line class="st1" x1="104" y1="14.4" x2="106.2" y2="8.6"/>
	<line class="st1" x1="107.5" y1="16.5" x2="106.2" y2="8.6"/>
	<line class="st1" x1="102.2" y1="9" x2="104" y2="14.5"/>
	<line class="st1" x1="100.9" y1="17" x2="102.2" y2="9"/>
	<line class="st1" x1="101.5" y1="21.7" x2="100.9" y2="17"/>
	<line class="st1" x1="111" y1="14.4" x2="108.9" y2="8.6"/>
	<line class="st1" x1="107.5" y1="16.5" x2="108.9" y2="8.6"/>
	<line class="st1" x1="112.9" y1="9" x2="111" y2="14.5"/>
	<line class="st1" x1="114.2" y1="17" x2="112.9" y2="9"/>
	<line class="st1" x1="113.5" y1="21.7" x2="114.2" y2="17"/>
</g>
<g>
	<ellipse class="st1" cx="125.5" cy="75.7" rx="5.8" ry="1.8"/>
	<line class="st1" x1="122" y1="68.4" x2="124.2" y2="62.6"/>
	<line class="st1" x1="125.5" y1="70.5" x2="124.2" y2="62.6"/>
	<line class="st1" x1="120.2" y1="63" x2="122" y2="68.5"/>
	<line class="st1" x1="118.9" y1="71" x2="120.2" y2="63"/>
	<line class="st1" x1="119.5" y1="75.7" x2="118.9" y2="71"/>
	<line class="st1" x1="129" y1="68.4" x2="126.9" y2="62.6"/>
	<line class="st1" x1="125.5" y1="70.5" x2="126.9" y2="62.6"/>
	<line class="st1" x1="130.9" y1="63" x2="129" y2="68.5"/>
	<line class="st1" x1="132.2" y1="71" x2="130.9" y2="63"/>
	<line class="st1" x1="131.5" y1="75.7" x2="132.2" y2="71"/>
</g>
<g>
	<ellipse class="st1" cx="143.5" cy="111.7" rx="5.8" ry="1.8"/>
	<line class="st1" x1="140" y1="104.4" x2="142.2" y2="98.6"/>
	<line class="st1" x1="143.5" y1="106.5" x2="142.2" y2="98.6"/>
	<line class="st1" x1="138.2" y1="99" x2="140" y2="104.5"/>
	<line class="st1" x1="136.9" y1="107" x2="138.2" y2="99"/>
	<line class="st1" x1="137.5" y1="111.7" x2="136.9" y2="107"/>
	<line class="st1" x1="147" y1="104.4" x2="144.9" y2="98.6"/>
	<line class="st1" x1="143.5" y1="106.5" x2="144.9" y2="98.6"/>
	<line class="st1" x1="148.9" y1="99" x2="147" y2="104.5"/>
	<line class="st1" x1="150.2" y1="107" x2="148.9" y2="99"/>
	<line class="st1" x1="149.5" y1="111.7" x2="150.2" y2="107"/>
</g>
</svg>
