<?xml version="1.0" encoding="utf-8"?>
<!-- Generator: Adobe Illustrator 23.0.5, SVG Export Plug-In . SVG Version: 6.00 Build 0)  -->
<svg version="1.1" id="图层_1" xmlns="http://www.w3.org/2000/svg" xmlns:xlink="http://www.w3.org/1999/xlink" x="0px" y="0px"
	 viewBox="0 0 87.2 110.9" style="enable-background:new 0 0 87.2 110.9;" xml:space="preserve">
<style type="text/css">
	.st0{fill:none;stroke:#000000;stroke-miterlimit:10;}
</style>
<g>
	<path d="M43.9,4l-0.5,1H41l-0.5,1.1c1,0.2,1.9,0.5,2.5,1.2c0.5,0.5,0.8,1.2,0.8,1.9c0,0.4-0.1,0.8-0.3,1.2s-0.4,0.7-0.6,0.9
		s-0.5,0.5-0.9,0.6c-0.4,0.2-0.9,0.3-1.4,0.3c-0.5,0-0.8-0.1-1-0.2s-0.3-0.3-0.3-0.5c0-0.1,0-0.2,0.1-0.3s0.2-0.1,0.3-0.1
		c0.1,0,0.2,0,0.3,0s0.2,0.1,0.4,0.2c0.3,0.2,0.6,0.3,0.9,0.3c0.5,0,0.9-0.2,1.2-0.5S43,10.2,43,9.7c0-0.5-0.2-0.9-0.5-1.3
		c-0.3-0.4-0.7-0.7-1.3-1c-0.4-0.2-1-0.3-1.7-0.3L41,4H43.9z"/>
</g>
<line class="st0" x1="41.5" y1="15.8" x2="27.6" y2="48.4"/>
<line class="st0" x1="41.9" y1="15.8" x2="55.8" y2="48.4"/>
<g>
	<path d="M22.5,52.6l1.9-0.9h0.2v6.7c0,0.4,0,0.7,0.1,0.8s0.1,0.2,0.2,0.3s0.4,0.1,0.7,0.1v0.2h-3v-0.2c0.4,0,0.6,0,0.7-0.1
		s0.2-0.1,0.2-0.2s0.1-0.4,0.1-0.9v-4.3c0-0.6,0-0.9-0.1-1.1c0-0.1-0.1-0.2-0.1-0.3s-0.2-0.1-0.3-0.1c-0.1,0-0.3,0.1-0.6,0.2
		L22.5,52.6z"/>
</g>
<g>
	<path d="M56.8,60v-0.2c0.5,0,1-0.1,1.4-0.4s0.9-0.6,1.3-1.2s0.7-1.2,0.9-1.9c-0.6,0.4-1.2,0.6-1.7,0.6c-0.6,0-1-0.2-1.4-0.6
		s-0.6-1-0.6-1.7c0-0.7,0.2-1.3,0.6-1.9c0.5-0.7,1.1-1,1.9-1c0.7,0,1.2,0.3,1.7,0.8c0.6,0.7,0.9,1.5,0.9,2.5c0,0.9-0.2,1.7-0.7,2.5
		s-1,1.4-1.8,1.9c-0.6,0.4-1.3,0.6-2.1,0.6H56.8z M60.4,55.9c0.1-0.5,0.1-0.9,0.1-1.2c0-0.4-0.1-0.8-0.2-1.2s-0.3-0.8-0.5-1
		s-0.5-0.4-0.8-0.4c-0.3,0-0.7,0.2-0.9,0.5s-0.4,0.8-0.4,1.4c0,0.8,0.2,1.5,0.5,1.9c0.3,0.3,0.6,0.5,0.9,0.5c0.2,0,0.4,0,0.6-0.1
		S60.2,56,60.4,55.9z"/>
</g>
<line class="st0" x1="58.8" y1="62.2" x2="44.9" y2="94.8"/>
<line class="st0" x1="59.2" y1="62.2" x2="73.1" y2="94.8"/>
<line class="st0" x1="24.6" y1="62.2" x2="38.5" y2="94.8"/>
<g>
	<path d="M35.7,99.7c0.2-0.5,0.5-0.9,0.9-1.2s0.8-0.4,1.3-0.4c0.6,0,1.1,0.2,1.5,0.6c0.3,0.3,0.4,0.6,0.4,1c0,0.6-0.4,1.2-1.1,1.8
		c0.5,0.2,0.9,0.5,1.1,0.8s0.4,0.8,0.4,1.3c0,0.7-0.2,1.3-0.7,1.8c-0.6,0.7-1.4,1-2.5,1c-0.5,0-0.9-0.1-1.1-0.2s-0.3-0.3-0.3-0.4
		c0-0.1,0-0.2,0.1-0.3s0.2-0.1,0.3-0.1c0.1,0,0.2,0,0.3,0c0.1,0,0.2,0.1,0.5,0.2s0.4,0.2,0.5,0.2c0.1,0,0.3,0.1,0.5,0.1
		c0.4,0,0.7-0.2,1-0.5s0.4-0.7,0.4-1.1c0-0.3-0.1-0.6-0.2-0.9c-0.1-0.2-0.2-0.4-0.3-0.5c-0.2-0.2-0.4-0.3-0.7-0.4s-0.6-0.2-0.9-0.2
		h-0.2V102c0.3,0,0.6-0.2,0.9-0.3s0.5-0.4,0.7-0.7s0.2-0.5,0.2-0.8c0-0.4-0.1-0.7-0.4-1s-0.6-0.4-0.9-0.4c-0.6,0-1.1,0.3-1.5,1
		L35.7,99.7z"/>
</g>
<g>
	<path d="M43.5,98.2h4.3v0.2l-2.6,7.9h-0.7l2.4-7.2h-2.2c-0.4,0-0.8,0.1-0.9,0.2c-0.3,0.2-0.6,0.5-0.8,0.8l-0.2-0.1L43.5,98.2z"/>
</g>
<g>
	<path d="M70.6,99l1.9-0.9h0.2v6.7c0,0.4,0,0.7,0.1,0.8s0.1,0.2,0.2,0.3s0.4,0.1,0.7,0.1v0.2h-3v-0.2c0.4,0,0.6,0,0.7-0.1
		s0.2-0.1,0.2-0.2s0.1-0.4,0.1-0.9v-4.3c0-0.6,0-0.9-0.1-1.1c0-0.1-0.1-0.2-0.1-0.3S71.4,99,71.3,99c-0.1,0-0.3,0.1-0.6,0.2L70.6,99
		z"/>
	<path d="M76.1,99l1.9-0.9h0.2v6.7c0,0.4,0,0.7,0.1,0.8s0.1,0.2,0.2,0.3s0.4,0.1,0.7,0.1v0.2h-3v-0.2c0.4,0,0.6,0,0.7-0.1
		s0.2-0.1,0.2-0.2s0.1-0.4,0.1-0.9v-4.3c0-0.6,0-0.9-0.1-1.1c0-0.1-0.1-0.2-0.1-0.3S76.9,99,76.8,99c-0.1,0-0.3,0.1-0.6,0.2L76.1,99
		z"/>
</g>
<g>
</g>
<g>
</g>
<g>
</g>
<g>
</g>
<g>
</g>
<g>
</g>
</svg>
