<?xml version="1.0" encoding="utf-8"?>
<!-- Generator: Adobe Illustrator 25.2.3, SVG Export Plug-In . SVG Version: 6.00 Build 0)  -->
<svg version="1.1" id="图层_1" xmlns="http://www.w3.org/2000/svg" xmlns:xlink="http://www.w3.org/1999/xlink" x="0px" y="0px"
	 viewBox="0 0 236 230" style="enable-background:new 0 0 236 230;" xml:space="preserve">
<style type="text/css">
	.st0{fill-rule:evenodd;clip-rule:evenodd;fill:#231815;}
</style>
<g>
	<g>
		<path class="st0" d="M118,7.9C58.9,7.9,10.8,56,10.8,115.2c0,59.1,48.1,107.2,107.2,107.2c59.1,0,107.3-48.1,107.3-107.2
			C225.3,56,177.2,7.9,118,7.9L118,7.9z M222.7,115.2c0,57.7-46.9,104.6-104.6,104.6c-57.7,0-104.6-46.9-104.6-104.6
			C13.4,57.5,60.3,10.5,118,10.5C175.7,10.5,222.7,57.5,222.7,115.2z"/>
		<path class="st0" d="M118,11.9c-56.9,0-103.2,46.3-103.2,103.2c0,56.9,46.3,103.3,103.2,103.3c56.9,0,103.2-46.3,103.2-103.3
			C221.3,58.2,175,11.9,118,11.9L118,11.9z M220.3,115.2c0,56.4-45.9,102.3-102.3,102.3c-56.4,0-102.3-45.9-102.3-102.3
			C15.8,58.8,61.6,12.9,118,12.9C174.4,12.9,220.3,58.8,220.3,115.2z"/>
		<path class="st0" d="M85.4,23c-0.1,3.9,3.4,1.8,5.7,1.7c0.8-0.1,8-2.9,7,0.1c-0.6,1.8-3,1.2-4.4,1.4c-1.7,0.2-3.7,0.8-5.3,1.6
			c-1.6,0.7-0.4,1.7,0.8,1.4c1.2-0.3,2.2-0.4,3.4-0.3c2.8,0.2,5.8,1,8.2,2.6c1.2,0.8,4.6,4.2,2.4,5.2c-1.3,0.6-3.1-1.2-4-2
			c-1.5-1.3-2.5-2.4-4.4-3.1c-3.5-1.1-7.1-0.4-9.9,2c-2.5,2.2-4.4,4.7-5,8.1C79.6,43,79,48,76.8,46.3c-2.5-1.8,1.1-7.7,1.7-8.8
			c0.3-0.5,1-1.2,1.6-1.9c0.4-0.5,1.4-1.6,2.2-2.5c0.4-0.5,1.7-1.7,2.3-2.2c0.8-0.6,1.1-1.7-0.3-1.7c-1.4,0.1-2,0.9-3.7,1.6
			c-1.7,0.7-6,4.7-6.8,2.3c-1-2.9,5.5-4.1,7.2-4.8c0.4-0.2,1-0.4,1.4-0.5c0.3-0.1,0.8-0.4,0.9-0.5c0.4-0.5,0.6-1.2,0.5-1.5
			c-0.4-0.9-1-1.9-1-2.8C83.3,22.4,84.7,22.4,85.4,23z"/>
		<path class="st0" d="M79.7,141.4l-7.6-4.1l-2.5,4.4c1.8,1.2,2.7,3.1,2.9,5.3l13.5,7.2l4.1-7.2l-6.8-3.6l20.9-39
			c0.1-0.2,0.1-0.3-0.1-0.4l-3.2-1.7c-0.2-0.1-0.4,0-0.5,0.1L79.7,141.4L79.7,141.4z"/>
		<g>
			<path class="st0" d="M92.2,144.4h55c1.1,0,2,0.9,2,2v12.6c0,1.1-0.9,2-2,2h-55c-1.1,0-2-0.9-2-2v-12.6
				C90.2,145.3,91.1,144.4,92.2,144.4L92.2,144.4L92.2,144.4z M92.9,146.2L92.9,146.2c-0.5,0-0.9,0.4-0.9,0.9v11.2
				c0,0.6,0.5,1.1,1.1,1.1h53.2c0.6,0,1.1-0.5,1.1-1.1v-10.9c0-0.6-0.5-1.1-1.1-1.1H92.9z"/>
		</g>
		<rect x="88.5" y="81.8" class="st0" width="18.7" height="4.1"/>
		<rect x="88.5" y="88" class="st0" width="18.7" height="4.1"/>
		<rect x="88.5" y="94.2" class="st0" width="18.7" height="4.1"/>
		<path class="st0" d="M160.3,121.5h1.2c0.3,0,0.6,0.2,0.6,0.5v1.3c0.6-0.3,1-1,1-1.7V116c0-0.7-0.4-1.4-1-1.7v1.1
			c0,0.3-0.3,0.5-0.6,0.5h-1.2c-0.3,0-0.6-0.2-0.6-0.5v-1.1c-0.6,0.3-1,1-1,1.7v5.6c0,0.7,0.4,1.3,1,1.7v-1.3
			C159.7,121.7,160,121.5,160.3,121.5L160.3,121.5z M84.7,105.4c-0.7,0-1.3,0-1.6,0.6c-1,1.6-0.8,6-0.8,7.8h-4.8l-1.2-1.2v-8
			c1.2-1.9,4.1-3.3,9.5-3.3l11.7,0c0.4,0,0.5,0.3,0.4,0.5l-6.4,11.9l-6.7,0V105.4L84.7,105.4L84.7,105.4z M101.3,115.9L101.3,115.9
			l6.7-12.5c0.2-0.3,0-0.5-0.2-0.6l-2.7-1.4h64.4v4.7c0-0.2,0,2-5.8,3c-0.6,0.1-1.1,0.2-1.7,0.3v2.7c1.6,0.1,2.9,1.5,2.9,3.1v7.4
			c0,1.6-1.3,3-2.9,3.1v4.1c1.6,0.1,2.9,1.5,2.9,3.1v7.3c0,1.7-1.4,3.1-3.1,3.1H160c-1.7,0-3.1-1.4-3.1-3.1V133c0-1.6,1.3-3,2.9-3.1
			v-4.1c-1.6-0.1-2.9-1.5-2.9-3.1v-7.4c0-1.6,1.3-3,2.9-3.1v-2.4c-4.6,0.8-9,2.1-12.4,6h-4.1c0,0-1.8,0.8-3.6,2.4
			c-1.2,1.1-2.5,2.5-3.3,4.3H135c0,0-0.7,0.4-1.3,1.1c0,0,0,0,0,0l-0.1,0c0,0,0,0,0,0l0,0c0,0,0,0,0,0h0c0,0,0,0,0,0v0c0,0,0,0,0,0
			c0,0,0,0,0,0c0,0,0,0,0,0c0,0,0,0,0,0c0,0,0,0,0,0h0c0,0,0,0,0,0.1c-0.5,0.6-0.8,1.3-0.7,2.2c0.3,2,0.9,2.5,2.8,4.1
			c1.9,1.6,5.3,5,6.7,6.9c1.2,1.6,1.4,3.9,0.4,4.6c-0.2,0.1-0.3,0.2-0.6,0.2h-22.6v0H96.9c-1.6,0-1.6-2.8-0.2-4.7
			c1.4-1.9,4.8-5.3,6.7-6.9c1.9-1.6,2.5-2,2.8-4.1c0.3-2-2.3-3.6-2.3-3.6h-1.4c-0.5-1-1.5-2.6-2.5-3.3h18.3c0.6,0,1-0.5,1-1v-1.1
			c0-0.6-0.5-1-1-1H101.3L101.3,115.9z M162.1,132.2v1c0,0.3-0.3,0.5-0.6,0.5h-1.2c-0.3,0-0.6-0.2-0.6-0.5v-1c-0.6,0.3-1,1-1,1.7
			v5.4c0,1.1,0.9,1.9,1.9,1.9h0.5c1.1,0,1.9-0.9,1.9-1.9v-5.4C163.1,133.1,162.7,132.5,162.1,132.2L162.1,132.2z M103.5,135.2
			c-0.6,0-1,0.5-1,1.1v1.1c0,0.6,0.5,1,1,1h31.7c0.6,0,1.1-0.5,1.1-1v-1.1c0-0.6-0.5-1.1-1.1-1.1H103.5L103.5,135.2z M109.1,128.4
			c-0.6,0-1.1,0.5-1.1,1v1.1c0,0.6,0.5,1.1,1.1,1.1h20.5c0.6,0,1-0.5,1-1.1v-1.1c0-0.6-0.5-1-1-1H109.1L109.1,128.4z M109.8,121.9
			c-0.6,0-1,0.5-1,1v1.1c0,0.6,0.5,1.1,1,1.1h19c0.6,0,1-0.5,1-1.1V123c0-0.6-0.5-1-1-1H109.8L109.8,121.9z M126.3,115.9
			c-0.6,0-1,0.5-1,1v1.1c0,0.6,0.5,1,1,1h8.5c0.6,0,1-0.5,1-1v-1.1c0-0.6-0.5-1-1-1H126.3z"/>
		<rect x="108.7" y="81.8" class="st0" width="3.2" height="4.1"/>
		<path class="st0" d="M91,78.1c5.7-0.3,11.9-2.2,17.3-5l1.7,3.7c-5.9,2.8-12.6,4.8-18,5L91,78.1z"/>
		<polygon class="st0" points="112.6,71.1 109.7,72.5 111.3,76.1 114.3,74.7 112.6,71.1 		"/>
		<rect x="108.7" y="88" class="st0" width="3.2" height="4.1"/>
		<rect x="108.7" y="94.2" class="st0" width="3.2" height="4.1"/>
		<path class="st0" d="M131.5,75.9l5.9-3.3l12.4,22.5l-5.9,3.3L131.5,75.9L131.5,75.9z M135.2,79l0.7,1.2l2.7-1.5l-0.7-1.2L135.2,79
			L135.2,79z M136.7,81.7l0.7,1.2l2.7-1.5l-0.7-1.3L136.7,81.7z"/>
		<path class="st0" d="M124.5,69.7h7.1v28.7h-7.1V69.7L124.5,69.7z M114.2,67h7.9v31.3h-7.9V67L114.2,67z M116.7,71.1v1.4h3v-1.4
			H116.7L116.7,71.1z M116.7,74.2v1.4h3v-1.4H116.7L116.7,74.2z M116.7,77.3v1.4h3v-1.4H116.7L116.7,77.3z M116.7,80.4v1.4h3v-1.4
			H116.7L116.7,80.4z M126.6,74.2v1.4h3v-1.4H126.6L126.6,74.2z M126.6,77.3v1.4h3v-1.4H126.6L126.6,77.3z M126.6,80.4v1.4h3v-1.4
			H126.6z"/>
		<path class="st0" d="M118,176.2c-33.6,0-61-27.4-61-61c0-33.6,27.4-61,61-61c33.6,0,61,27.4,61,61
			C179,148.8,151.6,176.2,118,176.2L118,176.2z M192.3,113.2l-5.8-0.8c-0.2,0-0.4-0.1-0.5-0.3c0-0.9-0.1-1.9-0.1-2.8
			c0.1-0.2,0.2-0.3,0.5-0.3l5.7-1.5c0.1,0,0.2-0.1,0.2-0.3c-0.1-0.5-0.1-1.1-0.2-1.7v0v0c-0.1-0.6-0.1-1.2-0.2-1.7
			c0-0.2-0.1-0.2-0.3-0.2h-5.9c-0.2,0-0.4-0.1-0.5-0.2c-0.2-0.9-0.4-1.8-0.6-2.8c0.1-0.2,0.2-0.3,0.4-0.4l5.5-2.3
			c0.1,0,0.2-0.1,0.1-0.3c-0.1-0.5-0.2-1-0.4-1.6v0v0c-0.2-0.6-0.3-1.2-0.5-1.7c-0.1-0.2-0.2-0.2-0.3-0.2l-5.8,0.8
			c-0.2,0-0.4,0-0.6-0.1c-0.3-0.9-0.6-1.8-0.9-2.7c0.1-0.2,0.2-0.4,0.4-0.5l5.1-2.9c0.1,0,0.1-0.1,0.1-0.3c-0.1-0.5-0.4-1-0.6-1.6
			l0,0v0c-0.3-0.6-0.5-1.1-0.7-1.6c-0.1-0.2-0.2-0.1-0.3-0.1l-5.7,1.5c-0.2,0.1-0.4,0-0.6-0.1c-0.4-0.8-0.8-1.6-1.2-2.4
			c0-0.3,0.1-0.4,0.3-0.6l4.7-3.6c0.1-0.1,0.2-0.1,0.1-0.3c-0.3-0.5-0.5-0.9-0.8-1.5c0,0,0,0,0,0v0c-0.3-0.6-0.6-1.1-0.9-1.5
			c-0.1-0.2-0.2-0.1-0.3-0.1l-5.4,2.3c-0.2,0.1-0.4,0.1-0.6,0c-0.5-0.8-1-1.5-1.5-2.2c-0.1-0.3,0-0.5,0.2-0.6l4.2-4.2
			c0.1-0.1,0.2-0.1,0-0.3c-0.3-0.4-0.6-0.8-1-1.4h0v0h0c-0.4-0.5-0.7-1-1-1.4c-0.1-0.1-0.3-0.1-0.3,0l-5.1,2.9
			c-0.2,0.1-0.5,0.1-0.7,0c-0.6-0.6-1.1-1.3-1.7-2c-0.1-0.2,0-0.4,0.1-0.6l3.6-4.6c0.1-0.1,0.1-0.2,0-0.3c-0.3-0.4-0.7-0.8-1.2-1.2
			v0h0v0h0c-0.4-0.5-0.8-0.8-1.2-1.2c-0.2-0.2-0.3-0.1-0.3,0l-4.7,3.6c-0.2,0.1-0.4,0.2-0.6,0.1c-0.6-0.6-1.3-1.2-2-1.7
			c-0.1-0.3-0.1-0.5,0-0.7l3-5.1c0-0.1,0.1-0.2-0.1-0.3c-0.4-0.3-0.8-0.7-1.4-1.1v0h0v0c-0.5-0.4-1-0.7-1.4-1c-0.2-0.1-0.3,0-0.3,0
			l-4.2,4.2c-0.2,0.2-0.4,0.3-0.6,0.2c-0.8-0.5-1.5-1-2.2-1.5c-0.1-0.2-0.1-0.4,0-0.6l2.3-5.4c0-0.1,0.1-0.2-0.1-0.3
			c-0.4-0.3-0.9-0.5-1.5-0.9h0c0,0,0,0,0,0c-0.5-0.3-1-0.6-1.5-0.8c-0.2-0.1-0.3,0-0.3,0.1l-3.6,4.6c-0.2,0.2-0.3,0.3-0.6,0.3
			c-0.8-0.4-1.6-0.8-2.4-1.2c-0.2-0.2-0.2-0.4-0.1-0.6l1.6-5.7c0-0.1,0-0.2-0.2-0.3c-0.5-0.2-1-0.4-1.6-0.7h0h0
			c-0.6-0.3-1.1-0.5-1.6-0.6c-0.2-0.1-0.3,0-0.3,0.1l-2.9,5.1c-0.1,0.2-0.3,0.3-0.5,0.4c-0.9-0.3-1.7-0.6-2.6-0.9
			c-0.1-0.1-0.2-0.3-0.1-0.6l0.8-5.8c0-0.1,0-0.2-0.2-0.3c-0.5-0.2-1.1-0.3-1.7-0.5v0h0h0c-0.6-0.2-1.1-0.3-1.6-0.4
			c-0.2,0-0.3,0-0.3,0.1l-2.3,5.4c-0.1,0.2-0.2,0.3-0.4,0.4c-0.9-0.2-1.8-0.4-2.8-0.6c-0.2-0.1-0.2-0.3-0.2-0.5v-5.9
			c0-0.1,0-0.2-0.2-0.2c-0.5-0.1-1.1-0.2-1.7-0.3h0h0c-0.6-0.1-1.2-0.2-1.7-0.2c-0.2,0-0.3,0.1-0.3,0.2l-1.5,5.7
			c0,0.2-0.2,0.4-0.3,0.5c-0.9-0.1-1.9-0.1-2.8-0.2c-0.1-0.1-0.3-0.3-0.3-0.5l-0.8-5.8c0-0.1-0.1-0.2-0.3-0.2c-0.3,0-0.5,0-0.8,0
			h-0.1h0h-0.1h0h0h0h0h0h0h0h-0.1h0h-0.1h0h0h0h0h0h0h0h0h0h0h0h0h0h0h0h0h0h0h0h0h0h0h0h0h-0.3c-0.3,0-0.6,0-0.8,0
			c-0.2,0-0.2,0.1-0.2,0.2l-0.8,5.8c0,0.2-0.1,0.4-0.3,0.5c-0.9,0-1.9,0.1-2.8,0.2c-0.2-0.1-0.3-0.3-0.3-0.5l-1.5-5.7
			c0-0.1-0.1-0.2-0.3-0.2c-0.5,0-1.1,0.1-1.7,0.2h0h0c-0.6,0.1-1.2,0.1-1.7,0.3c-0.2,0-0.2,0.1-0.2,0.2v5.9c0,0.2,0,0.4-0.2,0.5
			c-0.9,0.2-1.9,0.4-2.8,0.6c-0.2-0.1-0.3-0.2-0.4-0.4l-2.2-5.4c0-0.1-0.1-0.2-0.3-0.1c-0.5,0.1-1.1,0.3-1.7,0.4h0c0,0,0,0,0,0
			c-0.6,0.2-1.2,0.3-1.6,0.5c-0.2,0-0.2,0.1-0.2,0.3l0.8,5.8c0,0.2,0,0.4-0.1,0.6c-0.9,0.3-1.8,0.6-2.6,0.9c-0.2,0-0.3-0.1-0.5-0.4
			l-2.9-5.1c0-0.1-0.1-0.2-0.3-0.1c-0.5,0.2-1,0.4-1.6,0.6h0h0c-0.6,0.3-1.1,0.5-1.6,0.7c-0.2,0.1-0.2,0.2-0.1,0.3l1.5,5.7
			c0.1,0.2,0,0.4-0.1,0.6c-0.8,0.4-1.7,0.8-2.5,1.2c-0.2,0-0.4-0.1-0.6-0.3l-3.5-4.6c-0.1-0.1-0.1-0.2-0.3-0.1
			c-0.4,0.3-0.9,0.5-1.5,0.8v0h0h0c-0.5,0.3-1,0.6-1.5,0.9c-0.1,0.1-0.1,0.2-0.1,0.3l2.2,5.4c0.1,0.2,0.1,0.5,0,0.6
			c-0.7,0.5-1.5,1-2.2,1.5c-0.3,0-0.5,0-0.6-0.2l-4.1-4.2c-0.1-0.1-0.2-0.2-0.3,0c-0.4,0.3-0.9,0.6-1.4,1l0,0h0v0
			c-0.5,0.4-0.9,0.7-1.3,1.1c-0.2,0.1-0.1,0.2-0.1,0.3l3,5.1c0.1,0.2,0.1,0.4,0,0.7c-0.7,0.5-1.3,1.1-2,1.7c-0.3,0.1-0.5,0-0.7-0.1
			L67,61.3c-0.1,0-0.2-0.1-0.3,0c-0.4,0.3-0.8,0.7-1.2,1.2l0,0c0,0,0,0,0,0c-0.4,0.4-0.8,0.8-1.2,1.2c-0.2,0.2-0.1,0.3,0,0.3
			l3.6,4.6c0.2,0.2,0.2,0.4,0.1,0.6c-0.6,0.6-1.1,1.3-1.7,2c-0.3,0.1-0.5,0.1-0.7,0l-5.1-2.9c-0.1-0.1-0.2-0.1-0.3,0
			c-0.3,0.4-0.7,0.8-1.1,1.4h0v0c-0.4,0.5-0.8,1-1,1.4c-0.2,0.2-0.1,0.3,0,0.3l4.2,4.2c0.2,0.2,0.3,0.4,0.2,0.6
			c-0.5,0.7-1,1.4-1.5,2.2c-0.2,0.1-0.4,0.1-0.6,0l-5.4-2.3c-0.1,0-0.2-0.1-0.3,0.1c-0.3,0.4-0.6,0.9-0.9,1.5h0v0v0
			c-0.3,0.5-0.6,1-0.8,1.5c-0.1,0.2,0,0.3,0,0.3l4.7,3.6c0.2,0.1,0.3,0.3,0.3,0.6c-0.4,0.8-0.8,1.6-1.2,2.4
			c-0.2,0.2-0.4,0.2-0.6,0.1l-5.7-1.5c-0.1,0-0.2,0-0.3,0.1c-0.2,0.5-0.4,1-0.6,1.6h0v0v0c-0.3,0.6-0.5,1.1-0.6,1.6
			c-0.1,0.2,0,0.3,0.1,0.3l5.1,2.9c0.2,0.1,0.3,0.3,0.4,0.5c-0.3,0.9-0.6,1.7-0.9,2.7c-0.2,0.1-0.3,0.2-0.6,0.1L46.8,94
			c-0.1,0-0.2,0-0.3,0.2c-0.1,0.5-0.3,1.1-0.4,1.7h0v0v0c-0.1,0.6-0.3,1.1-0.4,1.6c0,0.2,0.1,0.3,0.1,0.3l5.4,2.3
			c0.2,0.1,0.3,0.2,0.4,0.4c-0.2,0.9-0.4,1.9-0.5,2.8c-0.1,0.2-0.3,0.2-0.6,0.2h-5.9c-0.1,0-0.2,0-0.2,0.2c-0.1,0.5-0.2,1.1-0.3,1.7
			v0v0c-0.1,0.6-0.1,1.2-0.2,1.7c0,0.2,0.1,0.3,0.2,0.3l5.7,1.5c0.2,0,0.4,0.2,0.5,0.3c-0.1,0.9-0.1,1.9-0.2,2.8
			c-0.1,0.2-0.3,0.3-0.5,0.3l-5.8,0.8c-0.1,0-0.2,0-0.2,0.2c0,0.5,0,1.1,0,1.7v0v0v0c0,0.6,0,1.2,0,1.7c0,0.2,0.1,0.2,0.2,0.2
			l5.8,0.8c0.3,0,0.4,0.1,0.5,0.3c0,0.9,0.1,1.8,0.2,2.8c-0.1,0.2-0.3,0.3-0.5,0.3l-5.7,1.5c-0.1,0-0.2,0.1-0.2,0.3
			c0,0.5,0.1,1.1,0.2,1.7v0v0v0c0.1,0.6,0.2,1.2,0.3,1.7c0,0.2,0.2,0.2,0.2,0.2h5.9c0.2,0,0.4,0,0.6,0.2c0.2,0.9,0.3,1.8,0.5,2.8
			c-0.1,0.2-0.2,0.3-0.4,0.4l-5.4,2.3c-0.1,0-0.2,0.1-0.1,0.3c0.1,0.4,0.3,1,0.4,1.6v0v0h0c0.1,0.6,0.3,1.2,0.4,1.7
			c0,0.2,0.2,0.2,0.3,0.2l5.8-0.8c0.2,0,0.4,0,0.6,0.2c0.3,0.9,0.6,1.8,0.9,2.7c0,0.2-0.2,0.4-0.4,0.4l-5.1,2.9
			c-0.1,0-0.2,0.1-0.1,0.3c0.2,0.5,0.4,1,0.6,1.6v0v0c0.3,0.6,0.5,1.1,0.7,1.6c0.1,0.2,0.2,0.2,0.3,0.1l5.7-1.5
			c0.2-0.1,0.4,0,0.6,0.1c0.4,0.8,0.8,1.6,1.2,2.4c0,0.3-0.1,0.4-0.3,0.6l-4.7,3.6c-0.1,0.1-0.2,0.1-0.1,0.3
			c0.3,0.5,0.5,0.9,0.8,1.5c0,0,0,0,0,0v0h0c0.3,0.6,0.6,1.1,0.9,1.5c0.1,0.1,0.2,0.1,0.3,0.1l5.4-2.3c0.2-0.1,0.5-0.1,0.6,0
			c0.5,0.8,1,1.5,1.5,2.2c0,0.3,0,0.5-0.2,0.6l-4.2,4.2c-0.1,0.1-0.2,0.1,0,0.3c0.3,0.4,0.6,0.8,1,1.4h0v0h0
			c0.4,0.5,0.7,0.9,1.1,1.4c0.1,0.1,0.2,0.1,0.3,0l5.1-2.9c0.2-0.1,0.4-0.1,0.7,0c0.6,0.6,1.1,1.3,1.7,2c0.1,0.2,0,0.5-0.1,0.6
			l-3.6,4.7c0,0.1-0.1,0.2,0,0.3c0.3,0.4,0.7,0.8,1.2,1.2c0,0,0,0,0,0v0h0c0.5,0.5,0.8,0.8,1.2,1.2c0.2,0.2,0.3,0.1,0.3,0l4.7-3.6
			c0.2-0.1,0.4-0.2,0.6-0.1c0.6,0.6,1.3,1.2,2,1.7c0.1,0.3,0.1,0.5,0,0.7l-2.9,5.1c-0.1,0.1-0.1,0.2,0,0.3c0.4,0.3,0.9,0.6,1.4,1v0
			h0v0c0.5,0.4,1,0.7,1.4,1c0.1,0.1,0.2,0,0.3,0l4.2-4.2c0.2-0.2,0.4-0.3,0.6-0.2c0.7,0.5,1.4,1,2.2,1.5c0.1,0.2,0.2,0.4,0,0.6
			l-2.3,5.4c0,0.1,0,0.2,0.1,0.3c0.4,0.3,0.9,0.5,1.5,0.9h0c0,0,0,0,0,0c0.5,0.3,1,0.6,1.5,0.8c0.2,0.1,0.3,0,0.3-0.1l3.5-4.7
			c0.1-0.2,0.3-0.3,0.6-0.3c0.8,0.4,1.6,0.8,2.4,1.2c0.1,0.2,0.2,0.4,0.1,0.6l-1.5,5.6c0,0.1,0,0.2,0.1,0.3c0.5,0.2,0.9,0.4,1.6,0.7
			h0c0,0,0,0,0,0c0.6,0.2,1.1,0.5,1.6,0.6c0.2,0.1,0.3,0,0.3-0.1l2.9-5c0.1-0.2,0.2-0.3,0.5-0.4c0.9,0.3,1.7,0.6,2.6,0.9
			c0.1,0.1,0.2,0.3,0.1,0.6l-0.8,5.8c0,0.1,0,0.2,0.2,0.3c0.5,0.2,1.1,0.3,1.7,0.5h0h0c0.6,0.2,1.2,0.3,1.6,0.4
			c0.2,0.1,0.3,0,0.3-0.1l2.3-5.4c0.1-0.2,0.2-0.3,0.4-0.4c0.9,0.2,1.9,0.4,2.8,0.5c0.2,0.1,0.2,0.3,0.2,0.5v5.9
			c0,0.1,0,0.2,0.2,0.3c0.5,0.1,1.1,0.2,1.7,0.2h0h0h0c0.6,0.1,1.2,0.2,1.7,0.2c0.2,0,0.3-0.1,0.3-0.2l1.5-5.7
			c0-0.2,0.2-0.4,0.3-0.5c0.9,0.1,1.9,0.1,2.8,0.1c0.2,0.2,0.3,0.3,0.3,0.5l0.8,5.8c0,0.1,0,0.2,0.2,0.2h1.1h0h0h0h0h0h0h0h0h0h0h0
			h0h0h0h0h0h0h0h0h0h0h0h0h0h0.1h0h0.1h0h0h0h0h0h0h0h0.1h0h0.1h0.5h0.1h0h0.2c0.2,0,0.2-0.2,0.3-0.2l0.8-5.8
			c0-0.2,0.1-0.4,0.3-0.5c0.9,0,1.9-0.1,2.8-0.1c0.2,0.1,0.3,0.2,0.4,0.5l1.5,5.7c0,0.1,0.1,0.2,0.3,0.2c0.5-0.1,1.1-0.1,1.7-0.2h0
			h0c0.6-0.1,1.2-0.1,1.7-0.2c0.2,0,0.2-0.2,0.2-0.3v-5.9c0-0.2,0.1-0.4,0.2-0.5c0.9-0.1,1.8-0.3,2.8-0.5c0.2,0.1,0.3,0.2,0.4,0.4
			l2.2,5.4c0,0.1,0.1,0.2,0.3,0.1c0.5-0.1,1-0.2,1.7-0.4h0h0c0.6-0.2,1.1-0.3,1.6-0.5c0.2,0,0.2-0.1,0.2-0.3l-0.8-5.8
			c0-0.2,0-0.4,0.1-0.6c0.9-0.3,1.8-0.6,2.6-0.9c0.2,0,0.4,0.2,0.5,0.4l2.9,5c0.1,0.1,0.2,0.2,0.3,0.1c0.5-0.2,1-0.4,1.6-0.6v0h0
			c0.6-0.3,1.1-0.5,1.6-0.7c0.2-0.1,0.2-0.2,0.2-0.3l-1.6-5.6c0-0.2,0-0.4,0.1-0.6c0.8-0.4,1.6-0.8,2.5-1.2c0.2,0,0.4,0.1,0.5,0.3
			l3.6,4.7c0,0.1,0.2,0.2,0.3,0.1c0.4-0.3,0.9-0.5,1.5-0.8v0h0c0.6-0.3,1.1-0.6,1.5-0.9c0.2-0.1,0.2-0.2,0.1-0.3l-2.2-5.4
			c-0.1-0.2-0.1-0.5,0-0.6c0.8-0.5,1.5-1,2.2-1.5c0.2,0,0.5,0,0.6,0.2l4.2,4.2c0.1,0.1,0.1,0.2,0.3,0c0.4-0.3,0.9-0.6,1.4-1v0h0
			c0,0,0,0,0,0c0.5-0.4,0.9-0.7,1.3-1c0.2-0.2,0.1-0.3,0.1-0.3l-3-5.1c-0.1-0.2-0.1-0.4,0-0.7c0.7-0.5,1.3-1.1,2-1.7
			c0.3-0.1,0.5,0,0.7,0.1l4.7,3.6c0.1,0,0.1,0.1,0.3,0c0.4-0.3,0.8-0.7,1.3-1.2v0h0v0c0.5-0.4,0.9-0.8,1.2-1.2
			c0.1-0.2,0.1-0.3,0-0.3l-3.6-4.7c-0.2-0.2-0.2-0.4-0.2-0.6c0.6-0.6,1.2-1.3,1.7-2c0.2-0.1,0.5-0.1,0.7,0l5.1,2.9
			c0.1,0.1,0.2,0.1,0.3,0c0.3-0.4,0.6-0.8,1.1-1.4v0h0c0.4-0.5,0.7-1,1-1.4c0.1-0.2,0-0.3,0-0.3l-4.2-4.2c-0.2-0.2-0.2-0.4-0.2-0.6
			c0.5-0.7,1-1.4,1.5-2.2c0.2-0.1,0.4-0.2,0.6,0l5.4,2.3c0.1,0,0.2,0,0.3-0.1c0.3-0.4,0.5-0.9,0.9-1.5v0h0v0c0.3-0.5,0.6-1,0.8-1.5
			c0.1-0.2,0-0.3-0.1-0.3l-4.7-3.6c-0.2-0.2-0.3-0.3-0.3-0.6c0.4-0.8,0.8-1.6,1.2-2.4c0.2-0.1,0.4-0.2,0.6-0.1l5.7,1.5
			c0.1,0,0.2,0,0.3-0.1c0.2-0.5,0.5-1,0.7-1.6v0l0,0c0.2-0.6,0.5-1.1,0.6-1.6c0.1-0.2,0-0.3-0.1-0.3l-5.1-2.9
			c-0.2-0.1-0.3-0.2-0.3-0.4c0.3-0.9,0.6-1.7,0.9-2.7c0.2-0.2,0.3-0.2,0.6-0.2l5.8,0.8c0.1,0,0.2,0,0.3-0.2c0.1-0.5,0.3-1.1,0.5-1.7
			v0v0c0.2-0.6,0.3-1.2,0.4-1.6c0.1-0.2,0-0.3-0.1-0.3l-5.5-2.3c-0.2-0.1-0.3-0.2-0.4-0.4c0.2-0.9,0.4-1.9,0.6-2.8
			c0.1-0.2,0.3-0.2,0.5-0.2h5.9c0.1,0,0.2,0,0.3-0.2c0.1-0.5,0.2-1.1,0.2-1.7v0v0v0c0.1-0.6,0.2-1.2,0.2-1.7c0-0.2-0.1-0.3-0.2-0.3
			l-5.7-1.5c-0.2,0-0.4-0.1-0.5-0.3c0.1-1,0.1-1.9,0.1-2.8c0.2-0.2,0.3-0.3,0.5-0.3l5.8-0.8c0.1,0,0.2,0,0.2-0.2v-1.7v0v0v0v-1.7
			C192.5,113.2,192.4,113.2,192.3,113.2z"/>
		<path class="st0" d="M112.5,155c0,0.3-0.2,0.5-0.5,0.5h-5.3c-0.3,0-0.5-0.2-0.5-0.5V154c0-0.3,0.2-0.5,0.5-0.5h5.3
			c0.3,0,0.5,0.2,0.5,0.5V155L112.5,155z M106.2,150.4c0-0.3,0.2-0.5,0.5-0.5h5.2c0.3,0,0.5,0.2,0.5,0.5v1.1c0,0.3-0.2,0.5-0.5,0.5
			h-5.2c-0.3,0-0.5-0.2-0.5-0.5V150.4L106.2,150.4z M114.3,152.7L114.3,152.7l-0.3-0.1l0.2-0.1l0.1,0c0.4-0.2,0.7-0.7,0.7-1.2v-1.6
			c0-0.7-0.6-1.3-1.3-1.3h-8.8c-0.7,0-1.3,0.6-1.3,1.3v1.6c0,0.5,0.3,1,0.7,1.2l0.1,0l0.2,0.1l-0.2,0.1l-0.1,0
			c-0.5,0.2-0.8,0.7-0.8,1.2v1.9c0,0.7,0.5,1.3,1.2,1.3h9.2c0.7,0,1.2-0.6,1.2-1.3v-1.9C115.1,153.4,114.8,152.9,114.3,152.7z"/>
		<path class="st0" d="M100.1,157h-2.7v-6.5c0-0.3-0.2-0.3-0.3-0.3c-0.1,0-0.3,0-0.4,0.1l-2,0.5v-1.5l2.1-0.5c0.1,0,0.2,0,0.3-0.1
			c0.4-0.1,0.7-0.2,1.1-0.2h1.6c0.2,0,0.3,0.1,0.3,0.4V157z"/>
		<path class="st0" d="M38.5,70.5c-0.7-0.7,0.7-2.9,1.4-1.5C39.9,69.9,39.1,70.7,38.5,70.5L38.5,70.5z M52.6,60.6
			c-1.2,0-5.2,0.6-6.1,1.1c-2.1,1.1-2.9,2.2-4.2,4.1c-0.5,0.8-1.1,1.9-2,1c-0.7-0.6-1.3,0.3-2.1,0.1c-0.8-0.2-0.8-1-1.1-1.6
			c-0.5-0.9-1.6,0.1-2.2,0.2c-0.5-0.3-0.2-1.7-0.6-2.1c-1.6,0-1.9,1-1.6,2.3c0.4,1.4-0.9,2.2-0.8,3.5c0.4,0.4,1.1,0.3,1.6,0
			c0.6,0.3,0.8,1,1,1.5c0.3,0.9,0.7,0.4,1.5,0.4c3.8-0.2,1.2,4.5,0.7,6.4c-0.3,1-0.6,2.4-0.1,3.4c0.3,0.6,1.3,2.4,1.5,2.8
			c0.9,1.5,5.1,3.6,3.7,0.3c-1-2.1-2.9-3.4-2.6-5.9c0.4-3,1-5.1,2.2-7.9c1-2.2,3.1-4.1,5-5.6c0.9-0.7,1.9-1.3,3.1-1.4
			c1.2,0,2.5,0.4,3.7-0.1C53.7,62.5,53.2,61.1,52.6,60.6L52.6,60.6z M46.2,75C46.2,75,46.2,75,46.2,75c-0.1,1.6-1.6,1.7-1.7,1.2
			c-0.1-0.4,0.7-2.2,1.5-1.7c0.1,0,0.2,0.3,0.2,0.4C46.2,74.9,46.2,74.9,46.2,75C46.2,75,46.2,75,46.2,75L46.2,75z M43.2,74.2
			c-0.8-1.1,0.6-2.5,0.9-3.6c0.1-0.2,0.2-0.4,0.5-0.5c0.3,0,0.1,0,0.6,0.3C45.8,70.8,44,75.4,43.2,74.2L43.2,74.2z M49,66.2
			c0.5-0.1,2,0,2.2,0.3c1.3,1.5-0.3,2.9-0.4,4.3c-0.6,2.1-1.7,2.7-0.4,4.9c0.9,1.4-0.1,4.2-2,4c-0.6-0.5,0-1.9-0.5-2.3
			c-2.4-0.3-2.4,4.1-5.7,2.8c-0.1,0-0.2-0.2-0.2-0.3c-0.3-1.4,0.8-1.6,1.1-2.5c-0.4-0.7-1.5-0.6-1.9-1.3c-0.3-2.8,1.2-5.2,2.4-7.4
			c0.6-1,1.5-1.8,2.7-1.2c1.6,0.7,0.4,3,1.1,4.1c2,0,0.8-4,1.4-5.3C48.8,66.4,48.9,66.3,49,66.2L49,66.2z M35.6,62.4
			c-0.3,0.2-1.4,1.2-1.5,0.3c-0.1-1.3,1-2.3,1.6-3.4c0.6-1.2,1.4-2.1,2.9-1.6c1,0.4,2.1,1.3,2.9,2c0.7,0.6,0.9,2,1,2.9
			c0.1,1.4-0.5,4.2-2.5,3.6c-0.6-1.6,1.4-2,0.4-3.4c-1.2-0.1-0.8,1.1-2,1c-1.3-0.8,0.4-2.3-0.4-3.3c-0.6,0-1,0.5-1.3,1
			C36.2,62.1,36,62,35.6,62.4L35.6,62.4z M35.9,72.6c0.9,1.3-0.2,3.5-1,4.5c-0.9,1.2-3.3,0.4-4.5,0c-1.5-0.6-2.7-1.5-1.8-3
			c0.1-0.1,0.4-0.9,0.4-1.3c0.1-1.2,0.2-2.7,1.7-1.7c0.6,0.3-1.1,3.1-1,3.4c0.1,0.4,0.4,0.4,0.7,0.5c1.6-0.9,0.2-3.8,2.5-3.2
			c0.8,0.8-0.3,2.4,0.4,2.9c0.7,0.5,0.8-1.9,2.1-2.2C35.5,72.4,35.9,72.6,35.9,72.6z"/>
		<path class="st0" d="M158.2,30.1c0,0-0.2-0.1-0.2-0.2c-1-1.2-3.2-2.1-4.9-2.2c-0.1,0-0.2,0-0.4-0.1c0,0-0.1-0.1-0.1-0.1
			c-0.3-0.4-0.8-1.8,0.3-1.4c1.3,0.4,1.3,0.5,2.2,0.8c0.9,0.3,2.3,0.8,3.1,1.1c0,0,0.1,0,0.1,0c0.1,0,0.1,0.1,0.2,0.1h0
			c0.1,0.1,0.3,0.2,0.4,0.3C159.9,29.5,159.6,30.5,158.2,30.1L158.2,30.1z M154.5,33.6c0.3-1.5,2.2,0.1,1.8,1.1
			c0,0.1-0.2,0.1-0.2,0.1c-0.3-0.1-0.5-0.3-0.6-0.4C155.2,34.1,154.5,33.6,154.5,33.6L154.5,33.6z M156.9,38.1
			c-0.3,1-2.9-0.7-2.8-1.9c0,0,0.1-0.2,0.1-0.2C155,35.9,157.3,37.1,156.9,38.1L156.9,38.1z M155,42.2c0.7-0.9,0.7-1.9-0.2-2.7
			c-0.1-0.1-0.1-0.1-0.2-0.2c-0.4-0.3-0.8-0.4-1.1-0.6c-0.2-0.1-0.5-0.2-0.8-0.2c-0.8,0.1-1.5,0.6-1.5,1.5c0,1.6,2.2,2.3,3.5,2.2
			C154.7,42.4,154.9,42.3,155,42.2L155,42.2z M150.1,35.6c-0.4-0.2-1.8-0.9-1.6-1.5c0.2-0.5,1-0.8,2.5,0.3c0.1,0,0.2,0.3,0.2,0.4
			C151.1,35.5,151,36,150.1,35.6L150.1,35.6z M147.3,39.4c0.8,0.5,2.7,0,2.7-1.2c0-2-3.1-2.2-3.9-0.7
			C145.8,37.9,146.4,38.8,147.3,39.4L147.3,39.4z M150.6,32.1c0.3-0.8,1.5-0.4,1.7,0.3c0,0.1-0.1,0.2-0.2,0.2
			c-0.5,0.1-1,0.1-1.5-0.3C150.6,32.3,150.6,32.2,150.6,32.1L150.6,32.1z M142.2,35.6c0.3-0.3,0.8-0.6,1.7,0.1c0,0,0.2,0.2,0.2,0.3
			C144.5,38.7,140.3,37.5,142.2,35.6L142.2,35.6z M138.1,37.1c0.8,0.4,3.6-3.1,2-4.1C138.6,31.9,137.3,36.7,138.1,37.1L138.1,37.1z
			 M161.5,27.8c-3-1.7-6.1-3-9.5-3.6c-1.7-0.3-3.3,3.3-1.6,4.3c0.7,0.4,3.3,0.3,3.2,1.4v0c-0.1,0.7-2.7-0.6-4.7,0.5
			c-0.1,0.1-0.2,0.1-0.3,0.2c-0.6,0.4-1.1,1.1-1.7,1.7c-0.6,0.5-1.4,1.7-2.3,1.6c-0.7-0.1-2-1.3-1.9-1.5c0.3-0.6,1.3-0.2,1.8-1
			c1-1.4,0.8-2.9,1.4-4.4c0.6-1.6,3.2-1.1,3.2-3.5c0-0.9-0.9-1.5-1.5-2.1l-0.8-0.6c-0.4-0.2-2-0.2-1.7,1c0.1,0.6,1.2,2.1,0.1,2.4
			c-1.4,0.4-3.3-0.3-4.7-0.6c-0.2-0.1-1.9-0.7-2.2-0.6c-0.2,0-0.4,0.1-0.5,0.2c-0.6,0.6-0.5,1.6-0.1,2.1c0,0,0,0,0,0
			c0,0,0.1,0.1,0.1,0.1c0.3,0.1,1.4,0.1,1.4,0.1c0.6,0,1.8,0.3,2.6,0.6v0c0.9,0.4,1.4,0.7,0.4,1c0,0,0,0-0.1,0c0,0,0,0,0,0
			c-1.4,0.5-3.9-0.8-5.3,0c0,0-0.1,0.1-0.2,0.1c-0.1,0.2-0.5,1-0.1,1.2c0.4,0.2,1,0.4,1.4,0.4c0.3,0,2,0,2.9,0
			c0.2,0,0.6-0.1,0.6-0.1c0.2-0.1,0.3-0.1,0.5-0.1c0.6-0.1,1.1,0,0.8,0.7c-0.3,0.9-3.6,1.8-4.5,1.6c-0.9-0.2-1.8,0.9-1.9,1.1
			c-0.2,0.8-0.1,1.7-0.4,2.5c-0.5,1.1-1.5,2.7-1,3.9c0.1,0.4,2.7,0.5,5.6,0.9c0.2,0,0.4,0.1,0.6,0.1c1.8,0.3,3.8,0.7,5.3,1.4
			c0.6,0.3,1.1,0.5,1.5,0.6c2.1,1.1,4.3,2.4,4.6,2.8c1.7,2,4.3,5.2,5.3,3.8c-0.1-1.4-0.9-2.4-1.4-3.5c-0.2-0.5,0.4-0.7,0.7-1.1
			c1-1.3,1.2-3.2,1.6-4.7c0.3-1.3,0.5-2.6,0.8-3.8c0.4-1.4-1.6-2.4-2.9-2.8c-0.2-0.1-0.5-0.4-0.4-0.5c0.2-1,2.1-0.2,3.3,0.5
			c0.5,0.3,1.6,0.2,1.9-0.2c0.4-0.6,0.6-1.4,0.9-1.9C163.3,28.9,162.4,28.3,161.5,27.8z"/>
		<path class="st0" d="M201.2,69.6c-0.1,1.6-1.8,2.8-3.2,3.5c-1.4,0.8-3.1-1-3.4-2.1c-0.2-0.5-0.3-2.3,0.2-2.7
			c0.6-0.5,1.4-0.1,1.9-0.6c0.1,0,0.1-0.3,0.1-0.4c-0.2-1.6,2.3-0.6,3.6,0.4C200.7,68.1,201.2,69.3,201.2,69.6L201.2,69.6z
			 M204.5,80.2c-0.1-0.5-0.5-1.7-0.5-2.5v0c0-2.1-0.6-4-0.8-6.1c-0.1-0.9-0.6-4.3,1-4.3c0.1,0,0.4-0.4,0.4-0.5
			c0.1-1.7-1-2.3-2.4-1.7c-0.8,0.3-1.3,0.5-2.1-0.1c-0.2-0.1-1.8-1-3.3-2c-0.9-0.6-3.8-2.8-3.8-2.8c-1.3-0.8-2.6-2.8-3.4-0.5
			c1,2,3.3,2.7,4.8,4.1c0.8,0.7,1.3,2.1-0.3,1.6c-1.5-0.5-3.2-2.4-4.2-2.9c-0.9-0.5-2.9-0.7-2.2,0.9c0.4,0.9,1.2,1.8,2.1,2.2
			c0.5,0.2,2.3,0.8,2.4,1.2c0.3,0.6,0.2,2-0.3,2.5c-0.7,0.8-2.5-0.5-3.4-1.2c0,0-0.4-0.3-1-0.6c-0.6-0.3-1.8-0.9-2.7-1.3
			c-0.4-0.2-1.3-0.5-1.6-0.6c-0.9-0.3-3.8-1-3.3,1.1c0,0,0.1,0.1,0.2,0.2c0.3,0.2,1,0.7,1.8,1.1c0.8,0.4,4.3,1.5,5.6,2.2
			c1.2,0.7,2.6,1,3.6,1.9c0.4,0.4,0.6,0.8,0.7,1.1c0.1,0.4,0.5,2.6,0.5,3.4c0,2-0.5,4.5-1,6c-0.5,1.6-1.9,4.2,0.7,4.3
			c2.6,0.1,2.5-8.4,2.6-10.2c0-0.6,0.2-3.1,1.4-2.2c1.9,1.6,1.4,4.1,1.6,6.2c0.1,0.6,0.6,0.8,1.1,0.9c0.2,0.1,0.8,0,0.9-0.1
			c0.4-0.7,0.5-1.5,0.4-2.3c-0.1-1.4-0.7-3.3-0.2-4.6c0.4-0.8,1-1,1.2-0.1c0,0,0,0.1,0,0.1c0.1,0.3,0.2,1.2,0.2,1.4
			c0,1.5,0.5,5.6,0.6,5.7c0.6,0.8,1.7,1.2,2.5,0.2C205,81.7,204.6,80.7,204.5,80.2z"/>
		<path class="st0" d="M127.3,151.7c0,0.3-0.2,0.5-0.5,0.5h-5.3c-0.3,0-0.5-0.2-0.5-0.5v-1.2c0-0.3,0.2-0.5,0.5-0.5l0,0h5.3
			c0.3,0,0.5,0.2,0.5,0.5V151.7L127.3,151.7z M128.8,148.5h-9.2c-0.6,0-1.2,0.6-1.2,1.3v2.7c0,0.7,0.5,1.3,1.2,1.3l3.6,0h3.6
			c0.3,0,0.5,0.2,0.5,0.5v0.9c0,0.3-0.2,0.5-0.5,0.5h-5.3c-0.2,0-0.4-0.1-0.5-0.3h-2.7v0.5c0,0.7,0.5,1.3,1.2,1.3h9.2
			c0.6,0,1.2-0.6,1.2-1.3v-6C129.9,149,129.4,148.5,128.8,148.5z"/>
		<path class="st0" d="M135.8,153.8c0-0.3,0.2-0.5,0.5-0.5h5.3c0.3,0,0.5,0.2,0.5,0.5v1.2c0,0.3-0.2,0.5-0.5,0.5v0h-5.3
			c-0.3,0-0.5-0.2-0.5-0.5V153.8L135.8,153.8z M134.4,157h9.2c0.6,0,1.2-0.6,1.2-1.3v-2.7c0-0.7-0.5-1.3-1.2-1.3H140h-3.6
			c-0.3,0-0.5-0.2-0.5-0.5v-0.8c0-0.3,0.2-0.5,0.5-0.5h5.3c0.2,0,0.4,0.1,0.5,0.3h2.7v-0.5c0-0.7-0.5-1.3-1.2-1.3h-9.2
			c-0.6,0-1.2,0.6-1.2,1.3v6C133.2,156.5,133.7,157,134.4,157z"/>
		<g>
			<path class="st0" d="M43.4,162.9c-1.3,0.8-2.8,1.8-3.4,2.2c-1.6,1-3.3,1-5.9-2.2l0.8-0.7c1,1.3,1.8,1.7,3.4,0.9
				c0.6-0.3,2-1.2,3-1.8c1.8-1.1,4.6-2.7,5.2-3.8l0.1,0c0.3,0.5,0.6,1,0.8,1.4c0.3,0.4,0.5,0.8,0.9,1.3
				C46.7,160.7,44.5,162.3,43.4,162.9z"/>
			<path class="st0" d="M42.1,171.4c-0.4-0.7-0.6-1-0.8-1.2c-0.3-0.4-0.5-0.7-1-1.3c1.7-1,3.7-2.4,4.8-3.2c1.6-1.1,3.7-2.6,4.4-3.8
				l0,0c0.3,0.5,0.6,0.9,0.9,1.3c0.3,0.4,0.7,0.9,1.1,1.4c-1.4,0.7-3.9,2.6-4.5,3C46.1,168.1,43.6,169.9,42.1,171.4L42.1,171.4z"/>
			<path class="st0" d="M53.4,170.7L53.4,170.7c-1.4,0.5-2.6,1-3.8,1.6c0.3,0.4,0.5,0.6,0.8,0.9c0.4,0.4,0.6,0.6,0.9,0.9
				C51.9,173.1,52.7,171.9,53.4,170.7L53.4,170.7z M49.2,179.7c-0.4-0.4-0.7-0.8-1.1-1.2c0.9-0.9,2-2.5,2.5-3.3
				c-0.3-0.4-0.7-0.9-1-1.2c-0.3-0.4-0.8-0.8-1-1.1c-0.9,0.4-2.7,1.4-3.4,2.2c-0.4-0.5-0.6-0.7-0.8-1c-0.3-0.4-0.6-0.7-1-1
				c0.7-0.2,1.9-0.5,2.4-0.7c1-0.4,2.5-0.9,3.7-1.4c1-0.4,2.7-1.1,3.9-1.7c0.4-0.2,1-0.4,1.2-0.8l0.1-0.1c0.4,0.4,0.7,0.8,0.9,1
				c0.4,0.4,0.7,0.7,1.1,1.1c-0.2,0.3-0.6,0.9-1,1.4c-0.7,1-1.5,2.3-2.1,3.3c-1,1.7-1.6,2.7-2.1,3.5c-0.2,0.4-0.7,1.3-1,2.3
				C49.8,180.5,49.5,180.1,49.2,179.7z"/>
			<path class="st0" d="M57.1,179.7c-1.8,2-2.4,3.9-0.9,5.3c1.8,1.6,3.7,0.1,5.2-1.7c1.4-1.6,2.8-3.8,1.1-5.4
				C60.7,176.3,58.8,177.7,57.1,179.7L57.1,179.7z M63.5,185c-1.7,2-4.4,3.9-8,0.8c-2.2-1.9-3.6-4.2-0.4-7.9c1.9-2.2,4.5-4,8.1-0.9
				C66.3,179.6,66,182.1,63.5,185z"/>
			<path class="st0" d="M77.8,189.1L77.8,189.1c-0.3-0.4-1.3-1.2-2.5-2c-0.2,0.3-1.4,2.3-2.7,4.4c-1.2,2.1-2.3,4.3-2.4,4.7
				c-0.6-0.4-0.8-0.5-1.3-0.8c-0.5-0.3-0.8-0.5-1.4-0.8c1-1.2,2.6-3.9,3.2-4.9c0.6-1.1,1.7-3,2.3-4c-1.1-0.6-2.5-1.4-3.1-1.3
				l-0.1-0.1c0.3-0.4,0.8-0.9,1-1.3c1.4,0.9,2.5,1.7,3.8,2.4c1.4,0.8,2.8,1.7,4.2,2.4C78.7,188.2,78.2,188.7,77.8,189.1z"/>
			<path class="st0" d="M78.7,194.4c-1.1,2.5-1.2,4.5,0.7,5.3c2.2,1,3.5-1,4.5-3.1c0.9-2,1.6-4.5-0.6-5.4
				C81.2,190.2,79.8,192.1,78.7,194.4L78.7,194.4z M86.4,197.6c-1.1,2.4-3.1,5.1-7.4,3.1c-2.7-1.2-4.7-3-2.7-7.5
				c1.2-2.6,3.1-5.2,7.5-3.2C87.5,191.7,87.9,194.2,86.4,197.6z"/>
			<path class="st0" d="M96.9,201.1c-0.2,0.8-1.2,3.9-1.4,5.3c-0.7-0.2-1.4-0.4-2.1-0.5c-0.5-1.6-1.2-4.5-1.5-5.8l-0.9-3.9l-0.1,0
				l-0.9,3.2c-0.2,0.6-0.9,4-1,5.2c-0.4-0.2-0.7-0.3-1.1-0.4c-0.4-0.1-0.8-0.2-1.2-0.3c0.9-1.5,2.2-5.8,2.4-6.6
				c0.2-0.6,1-3.2,0.9-4.4l0-0.1c0.5,0.2,1,0.4,1.6,0.5c0.6,0.2,1.1,0.3,1.6,0.4c0.1,0.9,0.5,2.9,0.7,4c0.5,2.1,0.8,3.4,1.1,4.5l0,0
				l0.6-2.1c0.4-1.2,1.1-4.5,1-5.4c0.3,0.1,0.8,0.3,1.2,0.4c0.5,0.1,0.6,0.2,1.1,0.3C98.3,196.7,97.2,200.2,96.9,201.1z"/>
			<path class="st0" d="M108.5,206c-0.1,0.4-0.3,1.4-0.3,2.3c-1.7,0.1-2.7,0-4.2-0.3c-3.6-0.6-5.2-2.4-4.6-6.7
				c0.4-2.6,1.9-5.6,6.9-4.8c1.4,0.2,2.9,0.5,3.7,0.7c-0.4,0.7-0.6,1.4-0.8,2.1l-0.1,0c-0.5-0.8-1.6-1.6-3.1-1.8
				c-2.3-0.3-3.4,1.4-3.9,4.2c-0.6,3.8,0.6,4.9,2.7,5.2c1,0.1,1.2-0.4,1.2-0.9l0.2-1.2c0.1-0.6,0.2-1.2-0.1-2l0-0.1
				c0.5,0.1,1.1,0.2,1.6,0.3c0.7,0.1,0.9,0.1,1.5,0.2C108.9,203.8,108.6,205.1,108.5,206z"/>
			<path class="st0" d="M125.3,200.9c0,1.3,0,2.9,0.1,4.2c0.1,2.1-0.8,3.8-4.4,3.9c-3.8,0.1-4.7-1.3-4.7-3.6c0-0.6,0-2.3-0.1-3.4
				c0-0.8,0-3.5-0.6-4.4l0,0c0.5,0,1.1,0,1.6,0c0.5,0,1,0,1.7-0.1c-0.3,1.5-0.1,4.5-0.1,5.3c0.1,2,0.1,3.3,0.3,3.8
				c0.3,0.8,1.1,1.3,2.1,1.2c2.5-0.1,2.6-1.5,2.5-4.1c-0.1-3.6-0.1-5-0.7-6.4c0.4,0,0.7,0,1.3,0c0.6,0,0.9,0,1.3-0.1
				C125.2,198.6,125.3,200.1,125.3,200.9z"/>
			<path class="st0" d="M136.8,201.5c0.1,0.8,0.6,4,1,5.4c-0.7,0.1-1.4,0.3-2.1,0.5c-1.1-1.2-3-3.6-3.8-4.6l-2.5-3.1l0,0l0.6,3.3
				c0.1,0.6,0.9,4,1.4,5.1c-0.4,0-0.8,0.1-1.2,0.2c-0.4,0.1-0.8,0.2-1.2,0.3c0.1-1.7-0.6-6.1-0.7-7c-0.1-0.7-0.5-3.3-1.1-4.4l0-0.1
				c0.5-0.1,1.1-0.1,1.6-0.2c0.6-0.1,1.1-0.2,1.6-0.3c0.5,0.7,1.7,2.4,2.4,3.3c1.4,1.6,2.2,2.7,3,3.6l0.1,0l-0.4-2.2
				c-0.2-1.3-1-4.5-1.4-5.3c0.3,0,0.8-0.1,1.2-0.2c0.5-0.1,0.6-0.1,1.1-0.2C136.1,196.9,136.6,200.6,136.8,201.5z"/>
			<path class="st0" d="M142.6,205.5c-0.5,0.1-0.9,0.3-1.6,0.5c-0.3-2-0.9-4.3-1.3-5.6c-0.5-1.9-1.1-4.4-2-5.4l0,0
				c0.5-0.1,1-0.2,1.5-0.4c0.5-0.1,1-0.3,1.6-0.5c0.1,1.5,1,4.6,1.2,5.2c0.3,1,1.1,4,1.9,5.9C143.2,205.4,142.9,205.5,142.6,205.5z"
				/>
			<path class="st0" d="M151.2,192.6c0,1.1,0.1,2.8,0.2,4.3c0.1,1.5,0.2,4.4,0.2,5.7c-0.6,0.2-1.2,0.5-1.8,0.8
				c-1.2-1.6-2.5-3.2-3.8-4.8c-1-1.3-2-2.5-2.7-3.3c-0.4-0.5-1.1-1.1-1.4-1.3l0-0.1c0.5-0.1,1.1-0.3,1.6-0.6
				c0.6-0.2,1.1-0.4,1.6-0.7c0.2,0.4,0.6,1.1,0.8,1.5c0.5,0.7,1.4,1.9,2.3,3.1c0.7,0.9,1.2,1.6,1.9,2.3l0.1,0c0-0.9-0.2-2.8-0.2-3.6
				c-0.2-2.2-0.4-3.8-1-4.8c0.4-0.1,0.8-0.2,1.2-0.4c0.4-0.2,0.8-0.3,1.2-0.5C151.2,191.1,151.2,192,151.2,192.6z"/>
			<path class="st0" d="M164,196.9c-1.6,0.7-2.5,1.2-3.5,1.7c-1.1,0.6-1.4,0.7-3.1,1.6c-0.6-1.7-1.3-3.2-2.3-5.2c-1-2.1-2.3-4.7-3-5
				l0,0c1.1-0.5,2.6-1.3,3.4-1.7c0.7-0.3,1.8-0.9,3.3-1.7c0,0.4,0.3,1.2,0.5,1.5l-0.1,0c-0.9,0.1-2.4,0.7-3.9,1.5
				c0.4,1,1.3,2.7,1.7,3.5c1-0.5,1.8-0.9,2.7-1.6c0.1,0.5,0.3,1,0.6,1.5c-1.2,0.2-2,0.7-2.8,1.1l0.9,1.8c0.9,1.7,1.2,1.9,2.2,1.4
				c1.2-0.6,2.3-1.4,2.9-2.2l0.1-0.1C163.6,195.8,163.8,196.3,164,196.9z"/>
			<path class="st0" d="M164,184.4c-0.4,0.3-0.7,0.5-1,0.7c0.4,0.7,0.9,1.5,1.1,1.8c0.4,0.6,0.6,1,1,1.6c0.4-0.2,0.6-0.4,0.8-0.5
				c1-0.6,1.4-1.5,0.4-3C165.5,183.8,164.6,184,164,184.4L164,184.4z M172.9,191.1c-0.4,0.3-0.8,0.6-1.3,0.9c-0.6-0.7-1.4-1.3-2.3-2
				c-0.9-0.7-1.5-1.2-2-1.2c-0.5,0-0.9,0.3-1.5,0.7c0.5,0.8,2.3,3.4,3.2,4.2c-0.4,0.3-0.9,0.5-1.4,0.8c-0.4,0.3-0.9,0.6-1.2,0.9
				c-0.7-1.5-2.5-4.1-3-5c-1-1.4-2.7-4.1-3.5-4.5l0,0c0.8-0.5,1.4-0.9,2.1-1.4c0.9-0.6,1.5-1,2.5-1.7c1.9-1.3,3.2-0.7,4,0.5
				c0.8,1.2,0.8,2.8-0.6,4l0,0c0.8-0.5,1.5-0.4,2.1,0c0.4,0.3,0.6,0.4,1.3,1c1,0.7,2.2,1.6,2.9,1.8l0.1,0.1
				C173.6,190.6,173.2,190.8,172.9,191.1z"/>
			<path class="st0" d="M177.9,187.3c-0.5,0.4-1.7,1.3-2.5,1.9c-0.3-0.5-0.7-1.2-1.2-1.8l0.1-0.1c1,0,2.2-0.3,3.1-1.1
				c0.8-0.7,1-1.5,0.4-2.2c-0.4-0.5-0.9-0.6-1.6-0.6c-1.1,0-2.2,0.4-3.4,0.4c-1.4,0-2.1-0.5-2.8-1.3c-0.7-0.8-1.5-2.7,1.4-5.1
				c0.5-0.5,1.4-1.2,2.2-1.7c0.2,0.5,0.6,1.2,1,1.8l-0.1,0.1c-0.7-0.1-1.5-0.1-2.5,0.8c-1,0.8-1,1.8-0.5,2.3c0.6,0.7,1,1,3.4,0.5
				c3-0.6,3.6,0,4.3,0.8C179.9,183,180.6,185,177.9,187.3z"/>
			<path class="st0" d="M184,181.5c-0.4,0.4-0.6,0.6-1.1,1.2c-1.2-1.6-2.9-3.3-3.9-4.3c-1.4-1.4-3.2-3.3-4.4-3.7l0,0
				c0.4-0.4,0.8-0.7,1.1-1.1c0.4-0.4,0.7-0.8,1.2-1.2c0.9,1.2,3.2,3.5,3.6,4c0.8,0.8,2.9,2.9,4.6,4.2
				C184.5,181,184.2,181.3,184,181.5z"/>
			<path class="st0" d="M184.6,165.9L184.6,165.9c-0.5,0.3-1.4,1-2.4,2.2c0.3,0.2,2,1.8,3.9,3.3c1.9,1.6,3.9,3,4.3,3.2
				c-0.5,0.5-0.6,0.7-1,1.1c-0.3,0.4-0.6,0.7-1,1.3c-1-1.2-3.4-3.2-4.3-4c-0.9-0.8-2.7-2.2-3.5-2.9c-0.8,1-1.7,2.3-1.8,2.8l-0.1,0.1
				c-0.3-0.4-0.8-0.9-1.1-1.2c1.2-1.2,2-2.2,3-3.4c1.1-1.3,2.1-2.5,3-3.8C183.7,164.9,184.2,165.5,184.6,165.9z"/>
			<path class="st0" d="M190.7,156.1c0.5,1,1,2,2.9,5.4c1,0.6,1.5,0.9,2.2,1.3c0.7,0.4,1.5,0.8,2.1,1c-0.4,0.5-0.6,0.9-0.9,1.3
				c-0.3,0.4-0.4,0.6-0.8,1.4c-0.4-0.4-1.3-1.1-1.7-1.4c-0.7-0.4-1.2-0.8-2.2-1.4c-3-0.3-5.6-0.3-6.2-0.3c-0.4,0-1.2,0.1-1.6,0.2
				l-0.1,0c0.4-0.5,0.7-1,1-1.5c0.3-0.5,0.6-1.1,1-1.7c0.4,0.2,0.8,0.3,1.2,0.4c1,0.1,2.3,0.4,4.4,0.5l0,0c-0.6-1.1-1.7-2.5-2.3-3.4
				c-0.3-0.4-0.8-0.8-1.2-1c0.3-0.4,0.4-0.6,0.8-1.1c0.2-0.4,0.5-0.8,0.7-1.1C190.2,155.2,190.5,155.9,190.7,156.1z"/>
		</g>
	</g>
</g>
<g>
</g>
<g>
</g>
<g>
</g>
<g>
</g>
<g>
</g>
<g>
</g>
<g>
</g>
<g>
</g>
<g>
</g>
<g>
</g>
<g>
</g>
<g>
</g>
<g>
</g>
<g>
</g>
<g>
</g>
</svg>
