<?xml version="1.0" encoding="UTF-8" standalone="no"?>
<!DOCTYPE svg PUBLIC "-//W3C//DTD SVG 1.1//EN" "http://www.w3.org/Graphics/SVG/1.1/DTD/svg11.dtd">
<!-- Generated by graphviz version 2.49.0 (20210828.1703)
 -->
<!-- Pages: 1 -->
<svg width="1042pt" height="1268pt" viewBox="0.00 0.00 1042.30 1268.00" xmlns="http://www.w3.org/2000/svg" xmlns:xlink="http://www.w3.org/1999/xlink">
    <g id="graph0" class="graph" transform="scale(1 1) rotate(0) translate(4 1264)">
        <!-- zero0 -->
        <g id="node1" class="node">
            <title>zero0</title>
            <polygon fill="none" stroke="black" points="1021,-1044 967,-1044 967,-1008 1021,-1008 1021,-1044" />
            <text text-anchor="middle" x="994" y="-1022.3" font-family="Times New Roman,serif" font-size="14.00">0</text>
        </g>
        <!-- zero1 -->
        <g id="node2" class="node">
            <title>zero1</title>
            <polygon fill="none" stroke="black" points="931,-972 877,-972 877,-936 931,-936 931,-972" />
            <text text-anchor="middle" x="904" y="-950.3" font-family="Times New Roman,serif" font-size="14.00">0</text>
        </g>
        <!-- zero2 -->
        <g id="node3" class="node">
            <title>zero2</title>
            <polygon fill="none" stroke="black" points="993,-828 939,-828 939,-792 993,-792 993,-828" />
            <text text-anchor="middle" x="966" y="-806.3" font-family="Times New Roman,serif" font-size="14.00">0</text>
        </g>
        <!-- zero3 -->
        <g id="node4" class="node">
            <title>zero3</title>
            <polygon fill="none" stroke="black" points="54,-756 0,-756 0,-720 54,-720 54,-756" />
            <text text-anchor="middle" x="27" y="-734.3" font-family="Times New Roman,serif" font-size="14.00">0</text>
        </g>
        <!-- zero4 -->
        <g id="node5" class="node">
            <title>zero4</title>
            <polygon fill="none" stroke="black" points="313,-684 259,-684 259,-648 313,-648 313,-684" />
            <text text-anchor="middle" x="286" y="-662.3" font-family="Times New Roman,serif" font-size="14.00">0</text>
        </g>
        <!-- zero5 -->
        <g id="node6" class="node">
            <title>zero5</title>
            <polygon fill="none" stroke="black" points="949,-756 895,-756 895,-720 949,-720 949,-756" />
            <text text-anchor="middle" x="922" y="-734.3" font-family="Times New Roman,serif" font-size="14.00">0</text>
        </g>
        <!-- zero6 -->
        <g id="node7" class="node">
            <title>zero6</title>
            <polygon fill="none" stroke="black" points="73,-684 19,-684 19,-648 73,-648 73,-684" />
            <text text-anchor="middle" x="46" y="-662.3" font-family="Times New Roman,serif" font-size="14.00">0</text>
        </g>
        <!-- zero7 -->
        <g id="node8" class="node">
            <title>zero7</title>
            <polygon fill="none" stroke="black" points="391,-612 337,-612 337,-576 391,-576 391,-612" />
            <text text-anchor="middle" x="364" y="-590.3" font-family="Times New Roman,serif" font-size="14.00">0</text>
        </g>
        <!-- zero8 -->
        <g id="node9" class="node">
            <title>zero8</title>
            <polygon fill="none" stroke="black" points="871,-684 817,-684 817,-648 871,-648 871,-684" />
            <text text-anchor="middle" x="844" y="-662.3" font-family="Times New Roman,serif" font-size="14.00">0</text>
        </g>
        <!-- zero9 -->
        <g id="node10" class="node">
            <title>zero9</title>
            <polygon fill="none" stroke="black" points="151,-612 97,-612 97,-576 151,-576 151,-612" />
            <text text-anchor="middle" x="124" y="-590.3" font-family="Times New Roman,serif" font-size="14.00">0</text>
        </g>
        <!-- zero10 -->
        <g id="node11" class="node">
            <title>zero10</title>
            <polygon fill="none" stroke="black" points="469,-540 415,-540 415,-504 469,-504 469,-540" />
            <text text-anchor="middle" x="442" y="-518.3" font-family="Times New Roman,serif" font-size="14.00">0</text>
        </g>
        <!-- zero11 -->
        <g id="node12" class="node">
            <title>zero11</title>
            <polygon fill="none" stroke="black" points="550,-468 496,-468 496,-432 550,-432 550,-468" />
            <text text-anchor="middle" x="523" y="-446.3" font-family="Times New Roman,serif" font-size="14.00">0</text>
        </g>
        <!-- zero12 -->
        <g id="node13" class="node">
            <title>zero12</title>
            <polygon fill="none" stroke="black" points="229,-540 175,-540 175,-504 229,-504 229,-540" />
            <text text-anchor="middle" x="202" y="-518.3" font-family="Times New Roman,serif" font-size="14.00">0</text>
        </g>
        <!-- zero13 -->
        <g id="node14" class="node">
            <title>zero13</title>
            <polygon fill="none" stroke="black" points="631,-396 577,-396 577,-360 631,-360 631,-396" />
            <text text-anchor="middle" x="604" y="-374.3" font-family="Times New Roman,serif" font-size="14.00">0</text>
        </g>
        <!-- zero14 -->
        <g id="node15" class="node">
            <title>zero14</title>
            <polygon fill="none" stroke="black" points="391,-468 337,-468 337,-432 391,-432 391,-468" />
            <text text-anchor="middle" x="364" y="-446.3" font-family="Times New Roman,serif" font-size="14.00">0</text>
        </g>
        <!-- zero15 -->
        <g id="node16" class="node">
            <title>zero15</title>
            <polygon fill="none" stroke="black" points="796,-324 742,-324 742,-288 796,-288 796,-324" />
            <text text-anchor="middle" x="769" y="-302.3" font-family="Times New Roman,serif" font-size="14.00">0</text>
        </g>
        <!-- zero16 -->
        <g id="node17" class="node">
            <title>zero16</title>
            <polygon fill="none" stroke="black" points="226,-396 172,-396 172,-360 226,-360 226,-396" />
            <text text-anchor="middle" x="199" y="-374.3" font-family="Times New Roman,serif" font-size="14.00">0</text>
        </g>
        <!-- zero17 -->
        <g id="node18" class="node">
            <title>zero17</title>
            <polygon fill="none" stroke="black" points="307,-324 253,-324 253,-288 307,-288 307,-324" />
            <text text-anchor="middle" x="280" y="-302.3" font-family="Times New Roman,serif" font-size="14.00">0</text>
        </g>
        <!-- zero18 -->
        <g id="node19" class="node">
            <title>zero18</title>
            <polygon fill="none" stroke="black" points="553,-684 499,-684 499,-648 553,-648 553,-684" />
            <text text-anchor="middle" x="526" y="-662.3" font-family="Times New Roman,serif" font-size="14.00">0</text>
        </g>
        <!-- zero19 -->
        <g id="node20" class="node">
            <title>zero19</title>
            <polygon fill="none" stroke="black" points="631,-612 577,-612 577,-576 631,-576 631,-612" />
            <text text-anchor="middle" x="604" y="-590.3" font-family="Times New Roman,serif" font-size="14.00">0</text>
        </g>
        <!-- zero20 -->
        <g id="node21" class="node">
            <title>zero20</title>
            <polygon fill="none" stroke="black" points="388,-252 334,-252 334,-216 388,-216 388,-252" />
            <text text-anchor="middle" x="361" y="-230.3" font-family="Times New Roman,serif" font-size="14.00">0</text>
        </g>
        <!-- zero21 -->
        <g id="node22" class="node">
            <title>zero21</title>
            <polygon fill="none" stroke="black" points="469,-180 415,-180 415,-144 469,-144 469,-180" />
            <text text-anchor="middle" x="442" y="-158.3" font-family="Times New Roman,serif" font-size="14.00">0</text>
        </g>
        <!-- zero22 -->
        <g id="node23" class="node">
            <title>zero22</title>
            <polygon fill="none" stroke="black" points="634,-108 580,-108 580,-72 634,-72 634,-108" />
            <text text-anchor="middle" x="607" y="-86.3" font-family="Times New Roman,serif" font-size="14.00">0</text>
        </g>
        <!-- zero23 -->
        <g id="node24" class="node">
            <title>zero23</title>
            <polygon fill="none" stroke="black" points="553,-36 499,-36 499,0 553,0 553,-36" />
            <text text-anchor="middle" x="526" y="-14.3" font-family="Times New Roman,serif" font-size="14.00">0</text>
        </g>
        <!-- one0 -->
        <g id="node25" class="node">
            <title>one0</title>
            <polygon fill="none" stroke="black" points="793,-684 739,-684 739,-648 793,-648 793,-684" />
            <text text-anchor="middle" x="766" y="-662.3" font-family="Times New Roman,serif" font-size="14.00">1</text>
        </g>
        <!-- one1 -->
        <g id="node26" class="node">
            <title>one1</title>
            <polygon fill="none" stroke="black" points="712,-324 658,-324 658,-288 712,-288 712,-324" />
            <text text-anchor="middle" x="685" y="-302.3" font-family="Times New Roman,serif" font-size="14.00">1</text>
        </g>
        <!-- one2 -->
        <g id="node27" class="node">
            <title>one2</title>
            <polygon fill="none" stroke="black" points="715,-612 661,-612 661,-576 715,-576 715,-612" />
            <text text-anchor="middle" x="688" y="-590.3" font-family="Times New Roman,serif" font-size="14.00">1</text>
        </g>
        <!-- one3 -->
        <g id="node28" class="node">
            <title>one3</title>
            <polygon fill="none" stroke="black" points="469,-36 415,-36 415,0 469,0 469,-36" />
            <text text-anchor="middle" x="442" y="-14.3" font-family="Times New Roman,serif" font-size="14.00">1</text>
        </g>
        <!-- cc_6_1_0 -->
        <g id="node29" class="node">
            <title>cc_6_1_0</title>
            <ellipse fill="none" stroke="black" cx="406" cy="-810" rx="33.29" ry="18" />
            <text text-anchor="middle" x="406" y="-806.3" font-family="Times New Roman,serif" font-size="14.00">cc 6 1</text>
        </g>
        <!-- cc_6_0_0 -->
        <g id="node34" class="node">
            <title>cc_6_0_0</title>
            <ellipse fill="none" stroke="black" cx="296" cy="-738" rx="33.29" ry="18" />
            <text text-anchor="middle" x="296" y="-734.3" font-family="Times New Roman,serif" font-size="14.00">cc 6 0</text>
        </g>
        <!-- cc_6_1_0&#45;&#45;cc_6_0_0 -->
        <g id="edge25" class="edge">
            <title>cc_6_1_0&#45;&#45;cc_6_0_0</title>
            <path fill="none" stroke="black" d="M385.31,-795.83C365.64,-783.32 336.23,-764.6 316.6,-752.11" />
        </g>
        <!-- cc_5_1_0 -->
        <g id="node36" class="node">
            <title>cc_5_1_0</title>
            <ellipse fill="none" stroke="black" cx="406" cy="-738" rx="33.29" ry="18" />
            <text text-anchor="middle" x="406" y="-734.3" font-family="Times New Roman,serif" font-size="14.00">cc 5 1</text>
        </g>
        <!-- cc_6_1_0&#45;&#45;cc_5_1_0 -->
        <g id="edge26" class="edge">
            <title>cc_6_1_0&#45;&#45;cc_5_1_0</title>
            <path fill="none" stroke="black" d="M406,-791.7C406,-780.85 406,-766.92 406,-756.1" />
        </g>
        <!-- cc_6_1_1 -->
        <g id="node30" class="node">
            <title>cc_6_1_1</title>
            <ellipse fill="none" stroke="black" cx="280" cy="-522" rx="33.29" ry="18" />
            <text text-anchor="middle" x="280" y="-518.3" font-family="Times New Roman,serif" font-size="14.00">cc 6 1</text>
        </g>
        <!-- cc_6_0_1 -->
        <g id="node35" class="node">
            <title>cc_6_0_1</title>
            <ellipse fill="none" stroke="black" cx="199" cy="-450" rx="33.29" ry="18" />
            <text text-anchor="middle" x="199" y="-446.3" font-family="Times New Roman,serif" font-size="14.00">cc 6 0</text>
        </g>
        <!-- cc_6_1_1&#45;&#45;cc_6_0_1 -->
        <g id="edge62" class="edge">
            <title>cc_6_1_1&#45;&#45;cc_6_0_1</title>
            <path fill="none" stroke="black" d="M262.82,-506.15C248.98,-494.2 229.63,-477.47 215.88,-465.58" />
        </g>
        <!-- cc_5_1_1 -->
        <g id="node37" class="node">
            <title>cc_5_1_1</title>
            <ellipse fill="none" stroke="black" cx="283" cy="-450" rx="33.29" ry="18" />
            <text text-anchor="middle" x="283" y="-446.3" font-family="Times New Roman,serif" font-size="14.00">cc 5 1</text>
        </g>
        <!-- cc_6_1_1&#45;&#45;cc_5_1_1 -->
        <g id="edge63" class="edge">
            <title>cc_6_1_1&#45;&#45;cc_5_1_1</title>
            <path fill="none" stroke="black" d="M280.74,-503.7C281.21,-492.85 281.8,-478.92 282.27,-468.1" />
        </g>
        <!-- cc_0_1_0 -->
        <g id="node31" class="node">
            <title>cc_0_1_0</title>
            <ellipse fill="none" stroke="black" cx="760" cy="-738" rx="33.29" ry="18" />
            <text text-anchor="middle" x="760" y="-734.3" font-family="Times New Roman,serif" font-size="14.00">cc 0 1</text>
        </g>
        <!-- cc_0_1_0&#45;&#45;one0 -->
        <g id="edge46" class="edge">
            <title>cc_0_1_0&#45;&#45;one0</title>
            <path fill="none" stroke="black" d="M761.48,-719.7C762.41,-708.85 763.61,-694.92 764.53,-684.1" />
        </g>
        <!-- cc_0_1_1 -->
        <g id="node32" class="node">
            <title>cc_0_1_1</title>
            <ellipse fill="none" stroke="black" cx="685" cy="-378" rx="33.29" ry="18" />
            <text text-anchor="middle" x="685" y="-374.3" font-family="Times New Roman,serif" font-size="14.00">cc 0 1</text>
        </g>
        <!-- cc_0_1_1&#45;&#45;one1 -->
        <g id="edge66" class="edge">
            <title>cc_0_1_1&#45;&#45;one1</title>
            <path fill="none" stroke="black" d="M685,-359.7C685,-348.85 685,-334.92 685,-324.1" />
        </g>
        <!-- cc_0_1_2 -->
        <g id="node33" class="node">
            <title>cc_0_1_2</title>
            <ellipse fill="none" stroke="black" cx="442" cy="-90" rx="33.29" ry="18" />
            <text text-anchor="middle" x="442" y="-86.3" font-family="Times New Roman,serif" font-size="14.00">cc 0 1</text>
        </g>
        <!-- cc_0_1_2&#45;&#45;one3 -->
        <g id="edge83" class="edge">
            <title>cc_0_1_2&#45;&#45;one3</title>
            <path fill="none" stroke="black" d="M442,-71.7C442,-60.85 442,-46.92 442,-36.1" />
        </g>
        <!-- cc_6_0_0&#45;&#45;zero4 -->
        <g id="edge33" class="edge">
            <title>cc_6_0_0&#45;&#45;zero4</title>
            <path fill="none" stroke="black" d="M293.53,-719.7C291.98,-708.85 289.99,-694.92 288.44,-684.1" />
        </g>
        <!-- cc_6_0_1&#45;&#45;zero16 -->
        <g id="edge67" class="edge">
            <title>cc_6_0_1&#45;&#45;zero16</title>
            <path fill="none" stroke="black" d="M199,-431.7C199,-420.85 199,-406.92 199,-396.1" />
        </g>
        <!-- cc_5_0_0 -->
        <g id="node38" class="node">
            <title>cc_5_0_0</title>
            <ellipse fill="none" stroke="black" cx="364" cy="-666" rx="33.29" ry="18" />
            <text text-anchor="middle" x="364" y="-662.3" font-family="Times New Roman,serif" font-size="14.00">cc 5 0</text>
        </g>
        <!-- cc_5_1_0&#45;&#45;cc_5_0_0 -->
        <g id="edge34" class="edge">
            <title>cc_5_1_0&#45;&#45;cc_5_0_0</title>
            <path fill="none" stroke="black" d="M396.26,-720.76C389.57,-709.62 380.72,-694.87 373.98,-683.63" />
        </g>
        <!-- cc_4_1_0 -->
        <g id="node40" class="node">
            <title>cc_4_1_0</title>
            <ellipse fill="none" stroke="black" cx="448" cy="-666" rx="33.29" ry="18" />
            <text text-anchor="middle" x="448" y="-662.3" font-family="Times New Roman,serif" font-size="14.00">cc 4 1</text>
        </g>
        <!-- cc_5_1_0&#45;&#45;cc_4_1_0 -->
        <g id="edge35" class="edge">
            <title>cc_5_1_0&#45;&#45;cc_4_1_0</title>
            <path fill="none" stroke="black" d="M415.74,-720.76C422.43,-709.62 431.28,-694.87 438.02,-683.63" />
        </g>
        <!-- cc_5_0_1 -->
        <g id="node39" class="node">
            <title>cc_5_0_1</title>
            <ellipse fill="none" stroke="black" cx="280" cy="-378" rx="33.29" ry="18" />
            <text text-anchor="middle" x="280" y="-374.3" font-family="Times New Roman,serif" font-size="14.00">cc 5 0</text>
        </g>
        <!-- cc_5_1_1&#45;&#45;cc_5_0_1 -->
        <g id="edge68" class="edge">
            <title>cc_5_1_1&#45;&#45;cc_5_0_1</title>
            <path fill="none" stroke="black" d="M282.26,-431.7C281.79,-420.85 281.2,-406.92 280.73,-396.1" />
        </g>
        <!-- cc_4_1_1 -->
        <g id="node41" class="node">
            <title>cc_4_1_1</title>
            <ellipse fill="none" stroke="black" cx="364" cy="-378" rx="33.29" ry="18" />
            <text text-anchor="middle" x="364" y="-374.3" font-family="Times New Roman,serif" font-size="14.00">cc 4 1</text>
        </g>
        <!-- cc_5_1_1&#45;&#45;cc_4_1_1 -->
        <g id="edge69" class="edge">
            <title>cc_5_1_1&#45;&#45;cc_4_1_1</title>
            <path fill="none" stroke="black" d="M300.18,-434.15C314.02,-422.2 333.37,-405.47 347.12,-393.58" />
        </g>
        <!-- cc_5_0_0&#45;&#45;zero7 -->
        <g id="edge42" class="edge">
            <title>cc_5_0_0&#45;&#45;zero7</title>
            <path fill="none" stroke="black" d="M364,-647.7C364,-636.85 364,-622.92 364,-612.1" />
        </g>
        <!-- cc_5_0_1&#45;&#45;zero17 -->
        <g id="edge70" class="edge">
            <title>cc_5_0_1&#45;&#45;zero17</title>
            <path fill="none" stroke="black" d="M280,-359.7C280,-348.85 280,-334.92 280,-324.1" />
        </g>
        <!-- cc_4_0_0 -->
        <g id="node42" class="node">
            <title>cc_4_0_0</title>
            <ellipse fill="none" stroke="black" cx="442" cy="-594" rx="33.29" ry="18" />
            <text text-anchor="middle" x="442" y="-590.3" font-family="Times New Roman,serif" font-size="14.00">cc 4 0</text>
        </g>
        <!-- cc_4_1_0&#45;&#45;cc_4_0_0 -->
        <g id="edge43" class="edge">
            <title>cc_4_1_0&#45;&#45;cc_4_0_0</title>
            <path fill="none" stroke="black" d="M446.52,-647.7C445.59,-636.85 444.39,-622.92 443.47,-612.1" />
        </g>
        <!-- cc_3_1_0 -->
        <g id="node43" class="node">
            <title>cc_3_1_0</title>
            <ellipse fill="none" stroke="black" cx="526" cy="-594" rx="33.29" ry="18" />
            <text text-anchor="middle" x="526" y="-590.3" font-family="Times New Roman,serif" font-size="14.00">cc 3 1</text>
        </g>
        <!-- cc_4_1_0&#45;&#45;cc_3_1_0 -->
        <g id="edge44" class="edge">
            <title>cc_4_1_0&#45;&#45;cc_3_1_0</title>
            <path fill="none" stroke="black" d="M464.54,-650.15C477.78,-638.28 496.25,-621.7 509.48,-609.82" />
        </g>
        <!-- cc 4 0 -->
        <g id="node80" class="node">
            <title>cc 4 0</title>
            <ellipse fill="none" stroke="black" cx="361" cy="-306" rx="33.29" ry="18" />
            <text text-anchor="middle" x="361" y="-302.3" font-family="Times New Roman,serif" font-size="14.00">cc 4 0</text>
        </g>
        <!-- cc_4_1_1&#45;&#45;cc 4 0 -->
        <g id="edge71" class="edge">
            <title>cc_4_1_1&#45;&#45;cc 4 0</title>
            <path fill="none" stroke="black" d="M363.26,-359.7C362.79,-348.85 362.2,-334.92 361.73,-324.1" />
        </g>
        <!-- cc 3 1 -->
        <g id="node81" class="node">
            <title>cc 3 1</title>
            <ellipse fill="none" stroke="black" cx="445" cy="-306" rx="33.29" ry="18" />
            <text text-anchor="middle" x="445" y="-302.3" font-family="Times New Roman,serif" font-size="14.00">cc 3 1</text>
        </g>
        <!-- cc_4_1_1&#45;&#45;cc 3 1 -->
        <g id="edge72" class="edge">
            <title>cc_4_1_1&#45;&#45;cc 3 1</title>
            <path fill="none" stroke="black" d="M381.18,-362.15C395.02,-350.2 414.37,-333.47 428.12,-321.58" />
        </g>
        <!-- cc_4_0_0&#45;&#45;zero10 -->
        <g id="edge50" class="edge">
            <title>cc_4_0_0&#45;&#45;zero10</title>
            <path fill="none" stroke="black" d="M442,-575.7C442,-564.85 442,-550.92 442,-540.1" />
        </g>
        <!-- cc_3_0_0 -->
        <g id="node44" class="node">
            <title>cc_3_0_0</title>
            <ellipse fill="none" stroke="black" cx="523" cy="-522" rx="33.29" ry="18" />
            <text text-anchor="middle" x="523" y="-518.3" font-family="Times New Roman,serif" font-size="14.00">cc 3 0</text>
        </g>
        <!-- cc_3_1_0&#45;&#45;cc_3_0_0 -->
        <g id="edge51" class="edge">
            <title>cc_3_1_0&#45;&#45;cc_3_0_0</title>
            <path fill="none" stroke="black" d="M525.26,-575.7C524.79,-564.85 524.2,-550.92 523.73,-540.1" />
        </g>
        <!-- cc_2_1_0 -->
        <g id="node45" class="node">
            <title>cc_2_1_0</title>
            <ellipse fill="none" stroke="black" cx="607" cy="-522" rx="33.29" ry="18" />
            <text text-anchor="middle" x="607" y="-518.3" font-family="Times New Roman,serif" font-size="14.00">cc 2 1</text>
        </g>
        <!-- cc_3_1_0&#45;&#45;cc_2_1_0 -->
        <g id="edge52" class="edge">
            <title>cc_3_1_0&#45;&#45;cc_2_1_0</title>
            <path fill="none" stroke="black" d="M543.18,-578.15C557.02,-566.2 576.37,-549.47 590.12,-537.58" />
        </g>
        <!-- cc_3_0_0&#45;&#45;zero11 -->
        <g id="edge53" class="edge">
            <title>cc_3_0_0&#45;&#45;zero11</title>
            <path fill="none" stroke="black" d="M523,-503.7C523,-492.85 523,-478.92 523,-468.1" />
        </g>
        <!-- cc_2_0_0 -->
        <g id="node46" class="node">
            <title>cc_2_0_0</title>
            <ellipse fill="none" stroke="black" cx="604" cy="-450" rx="33.29" ry="18" />
            <text text-anchor="middle" x="604" y="-446.3" font-family="Times New Roman,serif" font-size="14.00">cc 2 0</text>
        </g>
        <!-- cc_2_1_0&#45;&#45;cc_2_0_0 -->
        <g id="edge54" class="edge">
            <title>cc_2_1_0&#45;&#45;cc_2_0_0</title>
            <path fill="none" stroke="black" d="M606.26,-503.7C605.79,-492.85 605.2,-478.92 604.73,-468.1" />
        </g>
        <!-- cc_1_1_1 -->
        <g id="node48" class="node">
            <title>cc_1_1_1</title>
            <ellipse fill="none" stroke="black" cx="688" cy="-450" rx="33.29" ry="18" />
            <text text-anchor="middle" x="688" y="-446.3" font-family="Times New Roman,serif" font-size="14.00">cc 1 1</text>
        </g>
        <!-- cc_2_1_0&#45;&#45;cc_1_1_1 -->
        <g id="edge55" class="edge">
            <title>cc_2_1_0&#45;&#45;cc_1_1_1</title>
            <path fill="none" stroke="black" d="M624.18,-506.15C638.02,-494.2 657.37,-477.47 671.12,-465.58" />
        </g>
        <!-- cc_2_0_0&#45;&#45;zero13 -->
        <g id="edge61" class="edge">
            <title>cc_2_0_0&#45;&#45;zero13</title>
            <path fill="none" stroke="black" d="M604,-431.7C604,-420.85 604,-406.92 604,-396.1" />
        </g>
        <!-- cc_1_1_0 -->
        <g id="node47" class="node">
            <title>cc_1_1_0</title>
            <ellipse fill="none" stroke="black" cx="797" cy="-810" rx="33.29" ry="18" />
            <text text-anchor="middle" x="797" y="-806.3" font-family="Times New Roman,serif" font-size="14.00">cc 1 1</text>
        </g>
        <!-- cc_1_1_0&#45;&#45;cc_0_1_0 -->
        <g id="edge37" class="edge">
            <title>cc_1_1_0&#45;&#45;cc_0_1_0</title>
            <path fill="none" stroke="black" d="M788.23,-792.41C782.33,-781.25 774.59,-766.6 768.71,-755.47" />
        </g>
        <!-- cc_1_0_0 -->
        <g id="node50" class="node">
            <title>cc_1_0_0</title>
            <ellipse fill="none" stroke="black" cx="844" cy="-738" rx="33.29" ry="18" />
            <text text-anchor="middle" x="844" y="-734.3" font-family="Times New Roman,serif" font-size="14.00">cc 1 0</text>
        </g>
        <!-- cc_1_1_0&#45;&#45;cc_1_0_0 -->
        <g id="edge36" class="edge">
            <title>cc_1_1_0&#45;&#45;cc_1_0_0</title>
            <path fill="none" stroke="black" d="M807.9,-792.76C815.49,-781.46 825.58,-766.44 833.16,-755.15" />
        </g>
        <!-- cc_1_1_1&#45;&#45;cc_0_1_1 -->
        <g id="edge60" class="edge">
            <title>cc_1_1_1&#45;&#45;cc_0_1_1</title>
            <path fill="none" stroke="black" d="M687.26,-431.7C686.79,-420.85 686.2,-406.92 685.73,-396.1" />
        </g>
        <!-- cc_1_0_1 -->
        <g id="node51" class="node">
            <title>cc_1_0_1</title>
            <ellipse fill="none" stroke="black" cx="769" cy="-378" rx="33.29" ry="18" />
            <text text-anchor="middle" x="769" y="-374.3" font-family="Times New Roman,serif" font-size="14.00">cc 1 0</text>
        </g>
        <!-- cc_1_1_1&#45;&#45;cc_1_0_1 -->
        <g id="edge59" class="edge">
            <title>cc_1_1_1&#45;&#45;cc_1_0_1</title>
            <path fill="none" stroke="black" d="M705.18,-434.15C719.02,-422.2 738.37,-405.47 752.12,-393.58" />
        </g>
        <!-- cc_1_1_2 -->
        <g id="node49" class="node">
            <title>cc_1_1_2</title>
            <ellipse fill="none" stroke="black" cx="523" cy="-162" rx="33.29" ry="18" />
            <text text-anchor="middle" x="523" y="-158.3" font-family="Times New Roman,serif" font-size="14.00">cc 1 1</text>
        </g>
        <!-- cc_1_1_2&#45;&#45;cc_0_1_2 -->
        <g id="edge81" class="edge">
            <title>cc_1_1_2&#45;&#45;cc_0_1_2</title>
            <path fill="none" stroke="black" d="M505.82,-146.15C491.98,-134.2 472.63,-117.47 458.88,-105.58" />
        </g>
        <!-- cc_1_0_2 -->
        <g id="node52" class="node">
            <title>cc_1_0_2</title>
            <ellipse fill="none" stroke="black" cx="526" cy="-90" rx="33.29" ry="18" />
            <text text-anchor="middle" x="526" y="-86.3" font-family="Times New Roman,serif" font-size="14.00">cc 1 0</text>
        </g>
        <!-- cc_1_1_2&#45;&#45;cc_1_0_2 -->
        <g id="edge80" class="edge">
            <title>cc_1_1_2&#45;&#45;cc_1_0_2</title>
            <path fill="none" stroke="black" d="M523.74,-143.7C524.21,-132.85 524.8,-118.92 525.27,-108.1" />
        </g>
        <!-- cc_1_0_0&#45;&#45;zero8 -->
        <g id="edge45" class="edge">
            <title>cc_1_0_0&#45;&#45;zero8</title>
            <path fill="none" stroke="black" d="M844,-719.7C844,-708.85 844,-694.92 844,-684.1" />
        </g>
        <!-- cc_1_0_1&#45;&#45;zero15 -->
        <g id="edge65" class="edge">
            <title>cc_1_0_1&#45;&#45;zero15</title>
            <path fill="none" stroke="black" d="M769,-359.7C769,-348.85 769,-334.92 769,-324.1" />
        </g>
        <!-- cc_1_0_2&#45;&#45;zero23 -->
        <g id="edge82" class="edge">
            <title>cc_1_0_2&#45;&#45;zero23</title>
            <path fill="none" stroke="black" d="M526,-71.7C526,-60.85 526,-46.92 526,-36.1" />
        </g>
        <!-- cc_1_2_0 -->
        <g id="node53" class="node">
            <title>cc_1_2_0</title>
            <ellipse fill="none" stroke="black" cx="817" cy="-882" rx="33.29" ry="18" />
            <text text-anchor="middle" x="817" y="-878.3" font-family="Times New Roman,serif" font-size="14.00">cc 1 2</text>
        </g>
        <!-- cc_1_2_0&#45;&#45;cc_1_1_0 -->
        <g id="edge27" class="edge">
            <title>cc_1_2_0&#45;&#45;cc_1_1_0</title>
            <path fill="none" stroke="black" d="M812.16,-864.05C809.06,-853.21 805.05,-839.18 801.94,-828.28" />
        </g>
        <!-- cc__4_2_0 -->
        <g id="node55" class="node">
            <title>cc__4_2_0</title>
            <ellipse fill="none" stroke="black" cx="885" cy="-810" rx="36.29" ry="18" />
            <text text-anchor="middle" x="885" y="-806.3" font-family="Times New Roman,serif" font-size="14.00">cc &#45;4 2</text>
        </g>
        <!-- cc_1_2_0&#45;&#45;cc__4_2_0 -->
        <g id="edge28" class="edge">
            <title>cc_1_2_0&#45;&#45;cc__4_2_0</title>
            <path fill="none" stroke="black" d="M831.75,-865.81C843,-854.23 858.45,-838.34 869.8,-826.64" />
        </g>
        <!-- cc_1_2_1 -->
        <g id="node54" class="node">
            <title>cc_1_2_1</title>
            <ellipse fill="none" stroke="black" cx="521" cy="-810" rx="33.29" ry="18" />
            <text text-anchor="middle" x="521" y="-806.3" font-family="Times New Roman,serif" font-size="14.00">cc 1 2</text>
        </g>
        <!-- cc__4_2_1 -->
        <g id="node56" class="node">
            <title>cc__4_2_1</title>
            <ellipse fill="none" stroke="black" cx="521" cy="-738" rx="36.29" ry="18" />
            <text text-anchor="middle" x="521" y="-734.3" font-family="Times New Roman,serif" font-size="14.00">cc &#45;4 2</text>
        </g>
        <!-- cc_1_2_1&#45;&#45;cc__4_2_1 -->
        <g id="edge15" class="edge">
            <title>cc_1_2_1&#45;&#45;cc__4_2_1</title>
            <path fill="none" stroke="black" d="M521,-791.7C521,-780.85 521,-766.92 521,-756.1" />
        </g>
        <!-- cc 1 1 -->
        <g id="node67" class="node">
            <title>cc 1 1</title>
            <ellipse fill="none" stroke="black" cx="609" cy="-738" rx="33.29" ry="18" />
            <text text-anchor="middle" x="609" y="-734.3" font-family="Times New Roman,serif" font-size="14.00">cc 1 1</text>
        </g>
        <!-- cc_1_2_1&#45;&#45;cc 1 1 -->
        <g id="edge14" class="edge">
            <title>cc_1_2_1&#45;&#45;cc 1 1</title>
            <path fill="none" stroke="black" d="M539.23,-794.5C554.44,-782.4 575.98,-765.27 591.09,-753.25" />
        </g>
        <!-- cc__4_2_0&#45;&#45;zero5 -->
        <g id="edge38" class="edge">
            <title>cc__4_2_0&#45;&#45;zero5</title>
            <path fill="none" stroke="black" d="M893.77,-792.41C899.5,-781.58 906.96,-767.45 912.78,-756.45" />
        </g>
        <!-- cc__4_2_1&#45;&#45;zero18 -->
        <g id="edge16" class="edge">
            <title>cc__4_2_1&#45;&#45;zero18</title>
            <path fill="none" stroke="black" d="M522.24,-719.7C523.01,-708.85 524.01,-694.92 524.78,-684.1" />
        </g>
        <!-- count&#45;change 11 -->
        <g id="node57" class="node">
            <title>count&#45;change 11</title>
            <ellipse fill="none" stroke="black" cx="946" cy="-1242" rx="70.69" ry="18" />
            <text text-anchor="middle" x="946" y="-1238.3" font-family="Times New Roman,serif" font-size="14.00">count&#45;change 11</text>
        </g>
        <!-- cc 11 5 -->
        <g id="node58" class="node">
            <title>cc 11 5</title>
            <ellipse fill="none" stroke="black" cx="946" cy="-1170" rx="37.89" ry="18" />
            <text text-anchor="middle" x="946" y="-1166.3" font-family="Times New Roman,serif" font-size="14.00">cc 11 5</text>
        </g>
        <!-- count&#45;change 11&#45;&#45;cc 11 5 -->
        <g id="edge1" class="edge">
            <title>count&#45;change 11&#45;&#45;cc 11 5</title>
            <path fill="none" stroke="black" d="M946,-1223.7C946,-1212.85 946,-1198.92 946,-1188.1" />
        </g>
        <!-- cc 11 4 -->
        <g id="node59" class="node">
            <title>cc 11 4</title>
            <ellipse fill="none" stroke="black" cx="898" cy="-1098" rx="37.89" ry="18" />
            <text text-anchor="middle" x="898" y="-1094.3" font-family="Times New Roman,serif" font-size="14.00">cc 11 4</text>
        </g>
        <!-- cc 11 5&#45;&#45;cc 11 4 -->
        <g id="edge2" class="edge">
            <title>cc 11 5&#45;&#45;cc 11 4</title>
            <path fill="none" stroke="black" d="M934.87,-1152.76C927.22,-1141.62 917.11,-1126.87 909.41,-1115.63" />
        </g>
        <!-- cc &#45;39 5 -->
        <g id="node60" class="node">
            <title>cc &#45;39 5</title>
            <ellipse fill="none" stroke="black" cx="994" cy="-1098" rx="40.09" ry="18" />
            <text text-anchor="middle" x="994" y="-1094.3" font-family="Times New Roman,serif" font-size="14.00">cc &#45;39 5</text>
        </g>
        <!-- cc 11 5&#45;&#45;cc &#45;39 5 -->
        <g id="edge3" class="edge">
            <title>cc 11 5&#45;&#45;cc &#45;39 5</title>
            <path fill="none" stroke="black" d="M957.13,-1152.76C964.78,-1141.62 974.89,-1126.87 982.59,-1115.63" />
        </g>
        <!-- cc 11 3 -->
        <g id="node61" class="node">
            <title>cc 11 3</title>
            <ellipse fill="none" stroke="black" cx="808" cy="-1026" rx="37.89" ry="18" />
            <text text-anchor="middle" x="808" y="-1022.3" font-family="Times New Roman,serif" font-size="14.00">cc 11 3</text>
        </g>
        <!-- cc 11 4&#45;&#45;cc 11 3 -->
        <g id="edge4" class="edge">
            <title>cc 11 4&#45;&#45;cc 11 3</title>
            <path fill="none" stroke="black" d="M878.91,-1082.15C863.64,-1070.28 842.33,-1053.7 827.06,-1041.82" />
        </g>
        <!-- cc &#45;14 4 -->
        <g id="node62" class="node">
            <title>cc &#45;14 4</title>
            <ellipse fill="none" stroke="black" cx="904" cy="-1026" rx="40.09" ry="18" />
            <text text-anchor="middle" x="904" y="-1022.3" font-family="Times New Roman,serif" font-size="14.00">cc &#45;14 4</text>
        </g>
        <!-- cc 11 4&#45;&#45;cc &#45;14 4 -->
        <g id="edge5" class="edge">
            <title>cc 11 4&#45;&#45;cc &#45;14 4</title>
            <path fill="none" stroke="black" d="M899.48,-1079.7C900.41,-1068.85 901.61,-1054.92 902.53,-1044.1" />
        </g>
        <!-- cc &#45;39 5&#45;&#45;zero0 -->
        <g id="edge6" class="edge">
            <title>cc &#45;39 5&#45;&#45;zero0</title>
            <path fill="none" stroke="black" d="M994,-1079.7C994,-1068.85 994,-1054.92 994,-1044.1" />
        </g>
        <!-- cc 11 2 -->
        <g id="node63" class="node">
            <title>cc 11 2</title>
            <ellipse fill="none" stroke="black" cx="456" cy="-954" rx="37.89" ry="18" />
            <text text-anchor="middle" x="456" y="-950.3" font-family="Times New Roman,serif" font-size="14.00">cc 11 2</text>
        </g>
        <!-- cc 11 3&#45;&#45;cc 11 2 -->
        <g id="edge7" class="edge">
            <title>cc 11 3&#45;&#45;cc 11 2</title>
            <path fill="none" stroke="black" d="M773.93,-1018.22C706.64,-1004.84 557.39,-975.16 490.09,-961.78" />
        </g>
        <!-- cc 1 3 -->
        <g id="node64" class="node">
            <title>cc 1 3</title>
            <ellipse fill="none" stroke="black" cx="817" cy="-954" rx="33.29" ry="18" />
            <text text-anchor="middle" x="817" y="-950.3" font-family="Times New Roman,serif" font-size="14.00">cc 1 3</text>
        </g>
        <!-- cc 11 3&#45;&#45;cc 1 3 -->
        <g id="edge8" class="edge">
            <title>cc 11 3&#45;&#45;cc 1 3</title>
            <path fill="none" stroke="black" d="M810.22,-1007.7C811.62,-996.85 813.41,-982.92 814.8,-972.1" />
        </g>
        <!-- cc &#45;14 4&#45;&#45;zero1 -->
        <g id="edge9" class="edge">
            <title>cc &#45;14 4&#45;&#45;zero1</title>
            <path fill="none" stroke="black" d="M904,-1007.7C904,-996.85 904,-982.92 904,-972.1" />
        </g>
        <!-- cc 11 1 -->
        <g id="node65" class="node">
            <title>cc 11 1</title>
            <ellipse fill="none" stroke="black" cx="179" cy="-882" rx="37.89" ry="18" />
            <text text-anchor="middle" x="179" y="-878.3" font-family="Times New Roman,serif" font-size="14.00">cc 11 1</text>
        </g>
        <!-- cc 11 2&#45;&#45;cc 11 1 -->
        <g id="edge10" class="edge">
            <title>cc 11 2&#45;&#45;cc 11 1</title>
            <path fill="none" stroke="black" d="M423.41,-944.76C370.07,-931.28 264.73,-904.66 211.47,-891.2" />
        </g>
        <!-- cc 6 2 -->
        <g id="node66" class="node">
            <title>cc 6 2</title>
            <ellipse fill="none" stroke="black" cx="456" cy="-882" rx="33.29" ry="18" />
            <text text-anchor="middle" x="456" y="-878.3" font-family="Times New Roman,serif" font-size="14.00">cc 6 2</text>
        </g>
        <!-- cc 11 2&#45;&#45;cc 6 2 -->
        <g id="edge11" class="edge">
            <title>cc 11 2&#45;&#45;cc 6 2</title>
            <path fill="none" stroke="black" d="M456,-935.7C456,-924.85 456,-910.92 456,-900.1" />
        </g>
        <!-- cc 1 3&#45;&#45;cc_1_2_0 -->
        <g id="edge21" class="edge">
            <title>cc 1 3&#45;&#45;cc_1_2_0</title>
            <path fill="none" stroke="black" d="M817,-935.7C817,-924.85 817,-910.92 817,-900.1" />
        </g>
        <!-- cc &#45;9 3 -->
        <g id="node70" class="node">
            <title>cc &#45;9 3</title>
            <ellipse fill="none" stroke="black" cx="945" cy="-882" rx="36.29" ry="18" />
            <text text-anchor="middle" x="945" y="-878.3" font-family="Times New Roman,serif" font-size="14.00">cc &#45;9 3</text>
        </g>
        <!-- cc 1 3&#45;&#45;cc &#45;9 3 -->
        <g id="edge22" class="edge">
            <title>cc 1 3&#45;&#45;cc &#45;9 3</title>
            <path fill="none" stroke="black" d="M839.59,-940.65C862.56,-928.09 897.99,-908.71 921.34,-895.94" />
        </g>
        <!-- cc 11 0 -->
        <g id="node71" class="node">
            <title>cc 11 0</title>
            <ellipse fill="none" stroke="black" cx="47" cy="-810" rx="37.89" ry="18" />
            <text text-anchor="middle" x="47" y="-806.3" font-family="Times New Roman,serif" font-size="14.00">cc 11 0</text>
        </g>
        <!-- cc 11 1&#45;&#45;cc 11 0 -->
        <g id="edge23" class="edge">
            <title>cc 11 1&#45;&#45;cc 11 0</title>
            <path fill="none" stroke="black" d="M154.79,-868.16C131.12,-855.61 95.27,-836.6 71.5,-823.99" />
        </g>
        <!-- cc 10 1 -->
        <g id="node72" class="node">
            <title>cc 10 1</title>
            <ellipse fill="none" stroke="black" cx="179" cy="-810" rx="37.89" ry="18" />
            <text text-anchor="middle" x="179" y="-806.3" font-family="Times New Roman,serif" font-size="14.00">cc 10 1</text>
        </g>
        <!-- cc 11 1&#45;&#45;cc 10 1 -->
        <g id="edge24" class="edge">
            <title>cc 11 1&#45;&#45;cc 10 1</title>
            <path fill="none" stroke="black" d="M179,-863.7C179,-852.85 179,-838.92 179,-828.1" />
        </g>
        <!-- cc 6 2&#45;&#45;cc_6_1_0 -->
        <g id="edge12" class="edge">
            <title>cc 6 2&#45;&#45;cc_6_1_0</title>
            <path fill="none" stroke="black" d="M444.4,-864.76C436.33,-853.46 425.6,-838.44 417.53,-827.15" />
        </g>
        <!-- cc 6 2&#45;&#45;cc_1_2_1 -->
        <g id="edge13" class="edge">
            <title>cc 6 2&#45;&#45;cc_1_2_1</title>
            <path fill="none" stroke="black" d="M470.43,-865.46C481.2,-853.86 495.85,-838.08 506.61,-826.49" />
        </g>
        <!-- cc 1 0 -->
        <g id="node68" class="node">
            <title>cc 1 0</title>
            <ellipse fill="none" stroke="black" cx="604" cy="-666" rx="33.29" ry="18" />
            <text text-anchor="middle" x="604" y="-662.3" font-family="Times New Roman,serif" font-size="14.00">cc 1 0</text>
        </g>
        <!-- cc 1 1&#45;&#45;cc 1 0 -->
        <g id="edge17" class="edge">
            <title>cc 1 1&#45;&#45;cc 1 0</title>
            <path fill="none" stroke="black" d="M607.76,-719.7C606.99,-708.85 605.99,-694.92 605.22,-684.1" />
        </g>
        <!-- cc 0 1 -->
        <g id="node69" class="node">
            <title>cc 0 1</title>
            <ellipse fill="none" stroke="black" cx="688" cy="-666" rx="33.29" ry="18" />
            <text text-anchor="middle" x="688" y="-662.3" font-family="Times New Roman,serif" font-size="14.00">cc 0 1</text>
        </g>
        <!-- cc 1 1&#45;&#45;cc 0 1 -->
        <g id="edge18" class="edge">
            <title>cc 1 1&#45;&#45;cc 0 1</title>
            <path fill="none" stroke="black" d="M625.75,-722.15C639.16,-710.28 657.87,-693.7 671.27,-681.82" />
        </g>
        <!-- cc 1 0&#45;&#45;zero19 -->
        <g id="edge19" class="edge">
            <title>cc 1 0&#45;&#45;zero19</title>
            <path fill="none" stroke="black" d="M604,-647.7C604,-636.85 604,-622.92 604,-612.1" />
        </g>
        <!-- cc 0 1&#45;&#45;one2 -->
        <g id="edge20" class="edge">
            <title>cc 0 1&#45;&#45;one2</title>
            <path fill="none" stroke="black" d="M688,-647.7C688,-636.85 688,-622.92 688,-612.1" />
        </g>
        <!-- cc &#45;9 3&#45;&#45;zero2 -->
        <g id="edge29" class="edge">
            <title>cc &#45;9 3&#45;&#45;zero2</title>
            <path fill="none" stroke="black" d="M950.08,-864.05C953.34,-853.21 957.55,-839.18 960.82,-828.28" />
        </g>
        <!-- cc 11 0&#45;&#45;zero3 -->
        <g id="edge30" class="edge">
            <title>cc 11 0&#45;&#45;zero3</title>
            <path fill="none" stroke="black" d="M42.16,-792.05C39.06,-781.21 35.05,-767.18 31.94,-756.28" />
        </g>
        <!-- cc 10 0 -->
        <g id="node73" class="node">
            <title>cc 10 0</title>
            <ellipse fill="none" stroke="black" cx="110" cy="-738" rx="37.89" ry="18" />
            <text text-anchor="middle" x="110" y="-734.3" font-family="Times New Roman,serif" font-size="14.00">cc 10 0</text>
        </g>
        <!-- cc 10 1&#45;&#45;cc 10 0 -->
        <g id="edge31" class="edge">
            <title>cc 10 1&#45;&#45;cc 10 0</title>
            <path fill="none" stroke="black" d="M163.69,-793.46C152.25,-781.86 136.69,-766.08 125.27,-754.49" />
        </g>
        <!-- cc 9 1 -->
        <g id="node74" class="node">
            <title>cc 9 1</title>
            <ellipse fill="none" stroke="black" cx="199" cy="-738" rx="33.29" ry="18" />
            <text text-anchor="middle" x="199" y="-734.3" font-family="Times New Roman,serif" font-size="14.00">cc 9 1</text>
        </g>
        <!-- cc 10 1&#45;&#45;cc 9 1 -->
        <g id="edge32" class="edge">
            <title>cc 10 1&#45;&#45;cc 9 1</title>
            <path fill="none" stroke="black" d="M183.84,-792.05C186.94,-781.21 190.95,-767.18 194.06,-756.28" />
        </g>
        <!-- cc 10 0&#45;&#45;zero6 -->
        <g id="edge39" class="edge">
            <title>cc 10 0&#45;&#45;zero6</title>
            <path fill="none" stroke="black" d="M95.48,-721.12C85.45,-710.14 72.11,-695.56 61.81,-684.29" />
        </g>
        <!-- cc 9 0 -->
        <g id="node75" class="node">
            <title>cc 9 0</title>
            <ellipse fill="none" stroke="black" cx="124" cy="-666" rx="33.29" ry="18" />
            <text text-anchor="middle" x="124" y="-662.3" font-family="Times New Roman,serif" font-size="14.00">cc 9 0</text>
        </g>
        <!-- cc 9 1&#45;&#45;cc 9 0 -->
        <g id="edge40" class="edge">
            <title>cc 9 1&#45;&#45;cc 9 0</title>
            <path fill="none" stroke="black" d="M183.09,-722.15C170.37,-710.28 152.6,-693.7 139.88,-681.82" />
        </g>
        <!-- cc 8 1 -->
        <g id="node76" class="node">
            <title>cc 8 1</title>
            <ellipse fill="none" stroke="black" cx="208" cy="-666" rx="33.29" ry="18" />
            <text text-anchor="middle" x="208" y="-662.3" font-family="Times New Roman,serif" font-size="14.00">cc 8 1</text>
        </g>
        <!-- cc 9 1&#45;&#45;cc 8 1 -->
        <g id="edge41" class="edge">
            <title>cc 9 1&#45;&#45;cc 8 1</title>
            <path fill="none" stroke="black" d="M201.22,-719.7C202.62,-708.85 204.41,-694.92 205.8,-684.1" />
        </g>
        <!-- cc 9 0&#45;&#45;zero9 -->
        <g id="edge47" class="edge">
            <title>cc 9 0&#45;&#45;zero9</title>
            <path fill="none" stroke="black" d="M124,-647.7C124,-636.85 124,-622.92 124,-612.1" />
        </g>
        <!-- cc 8 0 -->
        <g id="node77" class="node">
            <title>cc 8 0</title>
            <ellipse fill="none" stroke="black" cx="202" cy="-594" rx="33.29" ry="18" />
            <text text-anchor="middle" x="202" y="-590.3" font-family="Times New Roman,serif" font-size="14.00">cc 8 0</text>
        </g>
        <!-- cc 8 1&#45;&#45;cc 8 0 -->
        <g id="edge48" class="edge">
            <title>cc 8 1&#45;&#45;cc 8 0</title>
            <path fill="none" stroke="black" d="M206.52,-647.7C205.59,-636.85 204.39,-622.92 203.47,-612.1" />
        </g>
        <!-- cc 7 1 -->
        <g id="node78" class="node">
            <title>cc 7 1</title>
            <ellipse fill="none" stroke="black" cx="286" cy="-594" rx="33.29" ry="18" />
            <text text-anchor="middle" x="286" y="-590.3" font-family="Times New Roman,serif" font-size="14.00">cc 7 1</text>
        </g>
        <!-- cc 8 1&#45;&#45;cc 7 1 -->
        <g id="edge49" class="edge">
            <title>cc 8 1&#45;&#45;cc 7 1</title>
            <path fill="none" stroke="black" d="M224.54,-650.15C237.78,-638.28 256.25,-621.7 269.48,-609.82" />
        </g>
        <!-- cc 8 0&#45;&#45;zero12 -->
        <g id="edge56" class="edge">
            <title>cc 8 0&#45;&#45;zero12</title>
            <path fill="none" stroke="black" d="M202,-575.7C202,-564.85 202,-550.92 202,-540.1" />
        </g>
        <!-- cc 7 1&#45;&#45;cc_6_1_1 -->
        <g id="edge58" class="edge">
            <title>cc 7 1&#45;&#45;cc_6_1_1</title>
            <path fill="none" stroke="black" d="M284.52,-575.7C283.59,-564.85 282.39,-550.92 281.47,-540.1" />
        </g>
        <!-- cc 7 0 -->
        <g id="node79" class="node">
            <title>cc 7 0</title>
            <ellipse fill="none" stroke="black" cx="364" cy="-522" rx="33.29" ry="18" />
            <text text-anchor="middle" x="364" y="-518.3" font-family="Times New Roman,serif" font-size="14.00">cc 7 0</text>
        </g>
        <!-- cc 7 1&#45;&#45;cc 7 0 -->
        <g id="edge57" class="edge">
            <title>cc 7 1&#45;&#45;cc 7 0</title>
            <path fill="none" stroke="black" d="M302.54,-578.15C315.78,-566.28 334.25,-549.7 347.48,-537.82" />
        </g>
        <!-- cc 7 0&#45;&#45;zero14 -->
        <g id="edge64" class="edge">
            <title>cc 7 0&#45;&#45;zero14</title>
            <path fill="none" stroke="black" d="M364,-503.7C364,-492.85 364,-478.92 364,-468.1" />
        </g>
        <!-- cc 4 0&#45;&#45;zero20 -->
        <g id="edge73" class="edge">
            <title>cc 4 0&#45;&#45;zero20</title>
            <path fill="none" stroke="black" d="M361,-287.7C361,-276.85 361,-262.92 361,-252.1" />
        </g>
        <!-- cc 3 0 -->
        <g id="node82" class="node">
            <title>cc 3 0</title>
            <ellipse fill="none" stroke="black" cx="442" cy="-234" rx="33.29" ry="18" />
            <text text-anchor="middle" x="442" y="-230.3" font-family="Times New Roman,serif" font-size="14.00">cc 3 0</text>
        </g>
        <!-- cc 3 1&#45;&#45;cc 3 0 -->
        <g id="edge74" class="edge">
            <title>cc 3 1&#45;&#45;cc 3 0</title>
            <path fill="none" stroke="black" d="M444.26,-287.7C443.79,-276.85 443.2,-262.92 442.73,-252.1" />
        </g>
        <!-- cc 2 1 -->
        <g id="node83" class="node">
            <title>cc 2 1</title>
            <ellipse fill="none" stroke="black" cx="526" cy="-234" rx="33.29" ry="18" />
            <text text-anchor="middle" x="526" y="-230.3" font-family="Times New Roman,serif" font-size="14.00">cc 2 1</text>
        </g>
        <!-- cc 3 1&#45;&#45;cc 2 1 -->
        <g id="edge75" class="edge">
            <title>cc 3 1&#45;&#45;cc 2 1</title>
            <path fill="none" stroke="black" d="M462.18,-290.15C476.02,-278.2 495.37,-261.47 509.12,-249.58" />
        </g>
        <!-- cc 3 0&#45;&#45;zero21 -->
        <g id="edge76" class="edge">
            <title>cc 3 0&#45;&#45;zero21</title>
            <path fill="none" stroke="black" d="M442,-215.7C442,-204.85 442,-190.92 442,-180.1" />
        </g>
        <!-- cc 2 1&#45;&#45;cc_1_1_2 -->
        <g id="edge78" class="edge">
            <title>cc 2 1&#45;&#45;cc_1_1_2</title>
            <path fill="none" stroke="black" d="M525.26,-215.7C524.79,-204.85 524.2,-190.92 523.73,-180.1" />
        </g>
        <!-- cc 2 0 -->
        <g id="node84" class="node">
            <title>cc 2 0</title>
            <ellipse fill="none" stroke="black" cx="607" cy="-162" rx="33.29" ry="18" />
            <text text-anchor="middle" x="607" y="-158.3" font-family="Times New Roman,serif" font-size="14.00">cc 2 0</text>
        </g>
        <!-- cc 2 1&#45;&#45;cc 2 0 -->
        <g id="edge77" class="edge">
            <title>cc 2 1&#45;&#45;cc 2 0</title>
            <path fill="none" stroke="black" d="M543.18,-218.15C557.02,-206.2 576.37,-189.47 590.12,-177.58" />
        </g>
        <!-- cc 2 0&#45;&#45;zero22 -->
        <g id="edge79" class="edge">
            <title>cc 2 0&#45;&#45;zero22</title>
            <path fill="none" stroke="black" d="M607,-143.7C607,-132.85 607,-118.92 607,-108.1" />
        </g>
    </g>
</svg>